<svg xmlns="http://www.w3.org/2000/svg" viewBox="0 0 502.09 403"><defs><style>.cls-1{fill:#316891;}.cls-2{fill:#17436a;}.cls-3,.cls-6{fill:#fff;}.cls-3,.cls-5{fill-rule:evenodd;}.cls-4{fill:#f6cd0f;}.cls-5{fill:#ffe36c;}.cls-7{fill:#dba54f;}.cls-8{fill:#287ebd;}</style></defs><title>Asset 4</title><g id="Layer_2" data-name="Layer 2"><g id="Layer_1-2" data-name="Layer 1"><polygon class="cls-1" points="51.35 280.25 7.58 245.07 156.28 210.58 176.24 296.61 27.53 331.1 51.35 280.25"/><path class="cls-2" d="M153.74,214.65l18.42,79.42L33.57,326.21,53.29,284.1l2.27-4.83-4.16-3.34L15.15,246.8l138.59-32.15m5.08-8.15L0,243.34l47.14,37.88L21.49,336l158.82-36.84L158.82,206.5Z"/><polygon class="cls-1" points="325.85 173.95 474.56 139.46 450.74 190.31 494.51 225.49 345.81 259.98 325.85 173.95"/><path class="cls-2" d="M468.52,144.35l-19.73,42.1-2.26,4.84,4.16,3.34,36.25,29.13L348.35,255.9l-18.42-79.41,138.59-32.14m12.08-9.78L321.77,171.41l21.49,92.65,158.83-36.84L455,189.34l25.65-54.77Z"/><path class="cls-3" d="M250.91,394.51c-6.3,0-19.68-5-22.3-6-1.57-.6-3-1.14-4.46-1.66a151.56,151.56,0,0,1-15.3-6.36c-10.32-5.05-20.36-11.44-29.22-17.07l-1.76-1.12c-32.61-20.73-60.52-56.28-76.59-97.53-2.92-7.5-4.81-15.37-6.65-23-.91-3.78-1.85-7.68-2.9-11.47l-.19-.7-.83-8.32c-3.22-12.34-2.91-27.91-2.6-43,.09-4.33.17-8.42.17-12.4l.18-72.69,7.87-.55c43.89-3.13,64.5-40.66,69.77-52.09a35.2,35.2,0,0,0,3.32-9.49c.14-1.09.2-1.36.35-2.14.2-1,.67-3.39,2.28-13.34l1.16-7.14,156.86.18.65,7.78c1,11.66,3.47,17.88,6.36,25.08l.86,2.15c7.54,19.05,24.25,34.73,47,44.16,3.84,1.59,8.83,2.65,13.66,3.67l2.45.52a12.29,12.29,0,0,0,1.84.18,19.34,19.34,0,0,1,5.43.92l5.73,2v81.11c0,2.42,0,4.86,0,7.3.1,13.13.21,26.7-2.6,38.13a9.86,9.86,0,0,0-.17,2.18,24.48,24.48,0,0,1-.67,6c-.7,2.79-1.35,5.58-2,8.37a184.88,184.88,0,0,1-5.18,19.33c-15.84,45.79-44.36,82.83-82.49,107.11-9.91,6.31-21.15,13.47-33.54,18.45-1.59.64-3,1.25-4.4,1.85a115.46,115.46,0,0,1-11.59,4.45c-3.23,1-11.47,3.56-18.34,4.92A11.44,11.44,0,0,1,250.91,394.51Z"/><path class="cls-4" d="M180.44,17l141.82.17c1.18,14.12,4.44,21.2,7.78,29.65,9.17,23.12,28.79,39.4,51.7,48.88,5.28,2.18,11.77,3.39,17.56,4.64,2.5.54,4.42.18,6.29.82v75.06c0,15.15.73,31-2.32,43.4-.75,3.08-.07,5.13-.82,8.12-2.31,9.14-4,18.4-7,27-15.35,44.36-42.52,79.47-79,102.72-9.92,6.32-20.57,13.08-32.14,17.73-5.28,2.12-8.7,3.95-15.41,6.09a176.39,176.39,0,0,1-17.4,4.68,3.39,3.39,0,0,1-.6,0c-2.9,0-11.14-2.31-19.28-5.41-6.82-2.6-11.73-4.15-19-7.72-10.55-5.16-20.74-11.75-30.15-17.73C149.92,334.49,124.1,300,109.2,261.71c-4.12-10.56-6.09-22.11-9.28-33.64-.28-2.76-.55-5.52-.83-8.28-4-14.55-2.32-35.84-2.32-53.84,0-21.65.11-43.14.17-64.79,37.61-2.67,64-29.15,76.87-57,2.47-5.35,2.5-5.45,4-11.5.38-3.09,0,.69,2.65-15.67M166,0l-1.68,14.44c-1.65,10-4.25,19-5.92,22.62C153.61,47.42,135,81.43,95.73,84.22L80,85.34l0,15.78-.08,32.38-.08,32.4c0,3.93-.09,8-.17,12.27-.31,15.39-.63,31.28,2.7,44.63l.28,2.82.42,4.14.14,1.45.39,1.4c1,3.65,1.89,7.31,2.83,11.19,1.9,7.88,3.86,16,7,24.07,16.95,43.53,45.34,79.62,79.94,101.61l1.77,1.13c9,5.75,19.3,12.28,30,17.53a159.32,159.32,0,0,0,16.1,6.7c1.39.51,2.83,1,4.37,1.63,5.15,2,17.94,6.53,25.32,6.53a19.57,19.57,0,0,0,3.88-.37,192.37,192.37,0,0,0,19.28-5.16,124.33,124.33,0,0,0,12.38-4.74c1.41-.61,2.73-1.19,4.2-1.77,13.11-5.27,24.7-12.65,34.93-19.17,39.76-25.32,69.48-63.87,86-111.49A194.15,194.15,0,0,0,417,240.09c.65-2.84,1.27-5.52,1.94-8.19a32.39,32.39,0,0,0,.93-7.94c0-.21,0-.41,0-.62,3-12.38,2.87-26.36,2.76-39.89,0-2.42,0-4.84,0-7.23V89s-31.24-7.75-34.35-9c-14.61-6.05-33.82-17.8-42.4-39.44q-.43-1.11-.87-2.19c-2.85-7.11-4.91-12.24-5.78-22.64L337.87.2l-15.59,0L251.14.1,180.46,0,166,0Z"/><path class="cls-5" d="M250.91,386c-2.92,0-11-2.28-19.28-5.41-1.54-.59-3-1.12-4.38-1.64l-.16-.06a140.19,140.19,0,0,1-14.51-6c-9.88-4.83-19.71-11.08-28.37-16.6l-1.78-1.13c-31.12-19.78-57.81-53.84-73.23-93.44-2.71-7-4.54-14.55-6.31-21.88-.94-3.89-1.89-7.85-3-11.75l-.83-8.26-.17-.64C96,208,96.3,193,96.6,178.51c.09-4.45.17-8.54.17-12.57l.17-64.77c48.52-3.46,71.1-44.5,76.87-57a42.76,42.76,0,0,0,3.86-11l.11-.46.06-.47a14.91,14.91,0,0,1,.25-1.5c.23-1.17.72-3.66,2.35-13.71l141.82.17c1.08,12.93,3.93,20,6.94,27.53l.85,2.14C338.44,68,356.8,85.38,381.74,95.7c4.56,1.89,9.94,3,15.15,4.12l2.43.52,6.27,1.48v74.4c0,2.44,0,4.9,0,7.36.1,12.61.2,25.65-2.36,36a17.5,17.5,0,0,0-.41,4.08,16.62,16.62,0,0,1-.42,4c-.7,2.79-1.35,5.6-2,8.4a183.09,183.09,0,0,1-5,18.6c-15.21,44-42.54,79.48-79,102.72-9.61,6.12-20.49,13-32.14,17.73-1.66.66-3.14,1.3-4.59,1.93a105.69,105.69,0,0,1-10.82,4.16,179.21,179.21,0,0,1-17.4,4.67A2.64,2.64,0,0,1,250.91,386Z"/><path class="cls-2" d="M187.64,25.5l127.09.15c1.53,9.6,4.09,16,6.58,22.19l.84,2.11c9.25,23.35,29.26,42.39,56.34,53.59,5.29,2.19,11.32,3.47,16.61,4.59l2,.42v67.67c0,2.46,0,4.95,0,7.43.09,12.09.19,24.58-2.11,33.95a25,25,0,0,0-.66,6,9.54,9.54,0,0,1-.16,2.07c-.73,2.91-1.4,5.79-2,8.58l0,.14A173.82,173.82,0,0,1,387.46,252c-14.57,42.13-40.7,76.14-75.57,98.34-9.29,5.92-19.82,12.62-30.74,17-1.8.72-3.32,1.38-4.84,2a100.68,100.68,0,0,1-10,3.84c-2.21.7-9.65,3-15.71,4.28-2.5-.32-9-2.16-16-4.82-1.57-.6-3-1.14-4.47-1.66l-.17-.07a132.09,132.09,0,0,1-13.71-5.68c-9.46-4.62-19.07-10.74-27.56-16.14L187,348c-29.62-18.83-55.09-51.4-69.87-89.36-2.5-6.42-4.26-13.72-6-20.84-.88-3.67-1.8-7.46-2.83-11.26l-.69-6.89-.14-1.31-.33-1.28c-2.63-10.08-2.33-24.45-2-38.36v-.11c.09-4.38.17-8.51.17-12.58l.15-57.23c47.74-7.35,70.17-48.15,76.11-61a51,51,0,0,0,4.4-12.58l.22-.91.13-.94a8.23,8.23,0,0,1,.15-.95l0-.1c.17-.85.46-2.35,1.2-6.75m-14.43-17-1.16,7.14C170.44,25.59,170,28,169.77,29c-.15.78-.21,1.05-.35,2.14a35.2,35.2,0,0,1-3.32,9.49c-5.27,11.43-25.88,49-69.77,52.09l-7.87.55-.18,72.69c0,4-.09,8.07-.17,12.4-.31,15.07-.62,30.64,2.6,43l.83,8.32.19.7c1,3.79,2,7.69,2.9,11.47,1.84,7.61,3.73,15.48,6.65,23,16.07,41.25,44,76.8,76.59,97.53l1.76,1.12c8.86,5.63,18.9,12,29.22,17.07a151.56,151.56,0,0,0,15.3,6.36c1.42.52,2.89,1.06,4.46,1.66,2.62,1,16,6,22.3,6a11.44,11.44,0,0,0,2.24-.21c6.87-1.36,15.11-3.9,18.34-4.92a115.46,115.46,0,0,0,11.59-4.45c1.39-.6,2.81-1.21,4.4-1.85,12.39-5,23.63-12.14,33.54-18.45,38.13-24.28,66.65-61.32,82.49-107.11a184.88,184.88,0,0,0,5.18-19.33c.64-2.79,1.29-5.58,2-8.37a24.48,24.48,0,0,0,.67-6,9.86,9.86,0,0,1,.17-2.18c2.81-11.43,2.7-25,2.6-38.13,0-2.44,0-4.88,0-7.3V95.11s-12.49-3-13-3.07l-2.45-.52c-4.83-1-9.82-2.08-13.66-3.67-22.79-9.43-39.5-25.11-47-44.16l-.86-2.15c-2.89-7.2-5.38-13.42-6.36-25.08l-.65-7.78L173.21,8.5Z"/><path class="cls-6" d="M160.66,167.55c-.5-.52-12.31-12.67-25-10.12-7.31,1.44-13,7.26-16.85,17.22-12.45,32,3.89,80.8,11.91,89.11,6.54,6.78,20.55,12.31,31,9.74.41-.1.81-.21,1.21-.34,5.84-1.83,9.89-6.09,11.72-12.33l.5-1.7-8.64-2.53-.5,1.71c-1,3.58-3.11,5.62-6.44,6.45-7.47,1.84-18.4-3.14-22.36-7.25-7.15-7.41-20.55-52.45-10-79.59,2.7-6.93,6.15-10.85,10.21-11.66,6.45-1.31,14.27,5,16.73,7.52l1.23,1.31,6.49-6.26Z"/><path class="cls-2" d="M156,276.7c-10.26,0-21.34-5.17-27.12-11.17-8.56-8.86-25.49-58.28-12.45-91.8,4.23-10.86,10.53-17.18,18.72-18.8,13.78-2.76,26,9.45,27.32,10.85h0l3,3.11-10.17,9.81-3-3.18c-2.56-2.62-9.47-7.76-14.37-6.78-4,.79-6.72,5.92-8.35,10.09-10,25.76,2.79,70,9.45,76.9,3.51,3.64,13.65,8.09,19.92,6.55,2.44-.61,3.82-2,4.6-4.7l1.22-4.15,13.53,3.95-1.22,4.16c-2.07,7.09-6.7,11.94-13.4,14-.45.14-.89.27-1.36.38A26.38,26.38,0,0,1,156,276.7ZM139.27,159.62a15.67,15.67,0,0,0-3.1.31c-6.38,1.26-11.42,6.52-15,15.64-11.87,30.53,3.85,78.64,11.37,86.43,5.91,6.13,19.09,11.36,28.54,9,.36-.09.71-.19,1.06-.3a14.53,14.53,0,0,0,9.8-9.88l-3.75-1.09a10.89,10.89,0,0,1-8,7.47c-8.46,2.09-20.34-3.32-24.8-8-8.31-8.61-21.33-54.53-10.53-82.29,3-7.78,7.09-12.24,12.08-13.23,7.9-1.61,16.35,5.7,18.52,7.73l2.82-2.72C156.13,166.71,148.12,159.62,139.27,159.62Z"/><path class="cls-6" d="M308.89,120.66c.12-.71,2.88-17.43,14.75-22.58,6.82-3,14.78-1.44,23.66,4.53,28.49,19.18,42.93,68.56,41.09,80-1.5,9.29-9.85,21.83-19.89,25.68-.4.15-.79.29-1.18.41-5.85,1.83-11.61.65-16.66-3.43l-1.39-1.12,5.65-7,1.39,1.11c2.9,2.34,5.76,2.85,9,1.62,7.18-2.75,13.31-13.08,14.22-18.71,1.64-10.17-13.07-54.8-37.23-71.06-6.17-4.15-11.25-5.39-15-3.74-6,2.61-8.87,12.25-9.44,15.72l-.27,1.78-8.9-1.43Z"/><path class="cls-2" d="M362,212.07a20.36,20.36,0,0,1-12.91-4.85l-3.37-2.72,8.85-11,3.37,2.71c2.18,1.76,4.11,2.12,6.46,1.22,6-2.31,11.81-11.74,12.61-16.73,1.53-9.49-13.2-53.11-36.14-68.54-3.7-2.5-8.9-5.14-12.6-3.53-4.6,2-7.33,10.16-7.94,13.81l-.64,4.29-14-2.25.67-4.27c.3-1.91,3.35-18.91,16.25-24.5,7.64-3.35,16.42-1.76,26.09,4.75,29.84,20.08,44.15,70.32,42.18,82.48-1.6,10-10.27,23.36-21.49,27.66-.45.17-.89.32-1.33.46A20.23,20.23,0,0,1,362,212.07Zm-9.11-8.34a14.57,14.57,0,0,0,13.69,2.51c.35-.11.69-.23,1-.36,9.08-3.48,16.92-15.29,18.28-23.71,1.73-10.68-12.82-59.16-40-77.45-8.12-5.46-15.26-6.91-21.21-4.3-9.38,4.07-12.46,16.62-13.11,19.88l3.87.62c.63-3,3.41-13.73,10.8-16.92,4.66-2,10.54-.69,17.47,4,24.71,16.63,40.23,61.77,38.32,73.58-1,6.35-7.69,17.57-15.82,20.68a10.87,10.87,0,0,1-10.87-1.55Z"/><path class="cls-7" d="M242.25,275.5a4.52,4.52,0,0,1-3.89,1.8L184,278.66a4.48,4.48,0,0,1-4-1.65c-5.43-8-15.18-26.45-19.39-60.9-2.46-20.23.32-56.54,1.16-66.52l46.79-1.17c.54,8.9,7.67,19,12.52,25.81,1.54,2.16,2.85,4,3.51,5.16,2.26,4.06,2.32,9.31,2.41,14.05a45.63,45.63,0,0,0,.4,7.14,13.84,13.84,0,0,0,5.34,8.36c6.26,4.85,13.73.84,14.71-2,1.26,2.06,1.5,2.4,2.71,4.17,2.6,3.77,5.15,7.25,7.65,10.48C254.62,251.59,246.71,268.25,242.25,275.5Z"/><path class="cls-7" d="M353.73,207.36l.08,0a107,107,0,0,1,.75,14.21,5.47,5.47,0,0,1-2.38,4.06l-47.47,26.69c-1.64.9-3,1.21-4.2.58-6.83-3.64-24.91-15.27-45.48-45.16-1.95-2.82-3.95-6.1-6-9.66l-.57-1c-9.88-17.54-19.95-41.08-23.1-48.61l1.67.43a34.28,34.28,0,0,1,4.81,1.44c4.43,1.87,10.09,3.76,16.06,1.89a15.54,15.54,0,0,0,2.65-1.46c7.48-4.15,8.69-11.83,10.09-17.49a48.26,48.26,0,0,0,1.15-5.22l0,0,43.68-24.08c5.79,8.19,26.5,36.71,34.63,55.4C349.42,180.8,352.75,196.25,353.73,207.36Z"/><path class="cls-2" d="M171.61,192.45a2.6,2.6,0,0,1-2.66,2.77,2.72,2.72,0,0,1-2.78-2.66,87.92,87.92,0,0,1,1.36-17.68,2.71,2.71,0,0,1,2.49-2.21,2.24,2.24,0,0,1,.68,0,2.7,2.7,0,0,1,2.17,3.17A82.84,82.84,0,0,0,171.61,192.45Z"/><path class="cls-2" d="M190.4,267.21a2.63,2.63,0,0,1-3.67-.86c-.64-1.18-15.57-28.86-19.56-60.31-.18-1.49.94-1.91,2.43-2h.16c1.43-.1,2.63,0,2.82,1.4,3.86,30.43,18.77,57.7,18.92,58A2.87,2.87,0,0,1,190.4,267.21Z"/><path class="cls-2" d="M302.51,123.39a2.73,2.73,0,0,0-.34,3.84c.27.32,27.6,33.21,36.35,76.41a2.73,2.73,0,0,0,3.21,2.13l.28-.07a2.72,2.72,0,0,0,1.84-3.14c-9-44.54-36.35-77.45-37.51-78.83A2.73,2.73,0,0,0,302.51,123.39Z"/><path class="cls-2" d="M236.45,128.13a2.71,2.71,0,0,0,.7-.13,2.94,2.94,0,0,0,2.06-3c0-.71-.88-17.12,14.38-21.91l.48-.14a2.95,2.95,0,0,0-1.65-5.66l-.59.18c-15.68,4.92-19,20.33-18.5,27.89A2.94,2.94,0,0,0,236.45,128.13Z"/><path class="cls-2" d="M356,185.21s-.21-.6-.58-1.62c-.43-1.5-.86-3-1.36-4.57l-1-1.91c-3.88-10.32-10.79-27.84-16-36.37-4.86-7.94-15-23.23-21.8-33.34l-2.31-4.27c-1.56-2.24-2.67-3.8-3.19-4.52C305.42,81.89,293.85,80.13,289,80.2a25.07,25.07,0,0,0-17.09,7.45A35.5,35.5,0,0,0,241,89.84c-7.72,4.28-12.42,11.27-15.49,18a33.6,33.6,0,0,0-14.59-3.16,35.44,35.44,0,0,0-27.62,13.59,24.81,24.81,0,0,0-18.73,2.05c-4.29,2.44-13.81,9.63-8.5,26.85,0,0,0,0,0,0-.09,1-.26,2.9-.46,5.47l-1.55,25.91c-.5,13.11-.58,27.65.71,38.26a192,192,0,0,0,8.27,38L169.77,271a83.41,83.41,0,0,0,5.42,9.31,10.2,10.2,0,0,0,9,4.21l54.37-1.35a12.58,12.58,0,0,0,3.45-.55,9.45,9.45,0,0,0,5.31-4.05c4.42-7.21,12-23.06,15.72-50.6,15.07,17.95,27.75,26.49,34.8,30.25a9.55,9.55,0,0,0,7.45.57,12.59,12.59,0,0,0,2.41-1.05l47.56-26.37a10.22,10.22,0,0,0,5.61-8.18,81.64,81.64,0,0,0,0-9.5l-3.4-22.54c-.49-2-1.05-4.18-1.67-6.37ZM243.87,95a29.73,29.73,0,0,1,24.69-2.32,10.72,10.72,0,0,0-.66,1.9A3.11,3.11,0,0,0,270,98.32c1.6.33,3.15-1,3.64-2.54a13,13,0,0,1,1.63-3.17,18.94,18.94,0,0,1,13.76-6.52c6.88-.09,11.95,4.28,14.5,12.31l-43.67,24.22a2.85,2.85,0,0,0-1,.94c-1.75,1.82-2.53,4.68-3.34,7.95-1.28,5.12-2.72,10.92-8,13.83-4.36,2.43-9.39.31-13.83-1.57-3.67-1.54-6.84-2.9-9.58-1.36a1.09,1.09,0,0,0-.17.13,1.59,1.59,0,0,0-.2.07l-3.61,2a3,3,0,0,0-1.3,3.69c.6,1.47,12.63,30.87,24.65,52.07-.12,1.26-.64,4-3,4.54a5.36,5.36,0,0,1-4.45-.57,6.2,6.2,0,0,1-2.72-4.21,47.28,47.28,0,0,1-.4-6.51c-.1-5.44-.21-11.59-3.18-16.94-.82-1.48-2.17-3.38-3.88-5.78-4.66-6.55-11.69-16.43-11.56-23.7.17-8.75,4.07-12.5,7.21-15.52a14.56,14.56,0,0,0,3.64-4.49,32.88,32.88,0,0,0,1.24-4.07C228.36,116.08,232.29,101.42,243.87,95Zm-76.28,30.73a19,19,0,0,1,15.1-1.39c.06,0,.46.23.61.29a7.71,7.71,0,0,1,2.46,1.64,2.93,2.93,0,0,0,4.15.16,3,3,0,0,0,.18-4.24,11.8,11.8,0,0,0-1.41-1.21,29.72,29.72,0,0,1,22.4-10.44,28,28,0,0,1,12.23,2.72c-.63,1.77-1.18,3.48-1.62,5a24.76,24.76,0,0,0-16.82-1.42,2.95,2.95,0,1,0,1.45,5.71A19.1,19.1,0,0,1,220.08,124c-.09.3-.2.65-.26.81a12.26,12.26,0,0,1-2.31,2.57c-3,2.88-7.26,7-8.59,15.11l-47.63,1.19C159.17,135.24,161.45,129.22,167.59,125.73ZM242.25,275.5a4.52,4.52,0,0,1-3.89,1.8L184,278.66a4.48,4.48,0,0,1-4-1.65c-5.43-8-15.18-26.45-19.39-60.9-2.46-20.23.32-56.54,1.16-66.52l46.79-1.17c.54,8.9,7.67,19,12.52,25.81,1.54,2.16,2.85,4,3.51,5.16,2.26,4.06,2.32,9.31,2.41,14.05a45.63,45.63,0,0,0,.4,7.14,13.84,13.84,0,0,0,5.34,8.36c6.26,4.85,13.73.84,14.71-2,1.26,2.06,1.5,2.4,2.71,4.17,2.6,3.77,5.15,7.25,7.65,10.48C254.62,251.59,246.71,268.25,242.25,275.5Zm111.48-68.14.08,0a107,107,0,0,1,.75,14.21,5.47,5.47,0,0,1-2.38,4.06l-47.47,26.69c-1.64.9-3,1.21-4.2.58-6.83-3.64-24.91-15.27-45.48-45.16-1.95-2.82-3.95-6.1-6-9.66l-.57-1c-9.88-17.54-19.95-41.08-23.1-48.61l1.67.43a34.28,34.28,0,0,1,4.81,1.44c4.43,1.87,10.09,3.76,16.06,1.89a15.54,15.54,0,0,0,2.65-1.46c7.48-4.15,8.69-11.83,10.09-17.49a48.26,48.26,0,0,0,1.15-5.22l0,0,43.68-24.08c5.79,8.19,26.5,36.71,34.63,55.4C349.42,180.8,352.75,196.25,353.73,207.36Z"/><path class="cls-6" d="M243.87,95a29.73,29.73,0,0,1,24.69-2.32,10.72,10.72,0,0,0-.66,1.9A3.11,3.11,0,0,0,270,98.32c1.6.33,3.15-1,3.64-2.54a13,13,0,0,1,1.63-3.17,18.94,18.94,0,0,1,13.76-6.52c6.88-.09,11.95,4.28,14.5,12.31l-43.67,24.22a2.85,2.85,0,0,0-1,.94c-1.75,1.82-2.53,4.68-3.34,7.95-1.28,5.12-2.72,10.92-8,13.83-4.36,2.43-9.39.31-13.83-1.57-3.67-1.54-6.84-2.9-9.58-1.36a1.09,1.09,0,0,0-.17.13,1.59,1.59,0,0,0-.2.07l-3.61,2a3,3,0,0,0-1.3,3.69c.6,1.47,12.63,30.87,24.65,52.07-.12,1.26-.64,4-3,4.54a5.36,5.36,0,0,1-4.45-.57,6.2,6.2,0,0,1-2.72-4.21,47.28,47.28,0,0,1-.4-6.51c-.1-5.44-.21-11.59-3.18-16.94-.82-1.48-2.17-3.38-3.88-5.78-4.66-6.55-11.69-16.43-11.56-23.7.17-8.75,4.07-12.5,7.21-15.52a14.56,14.56,0,0,0,3.64-4.49,32.88,32.88,0,0,0,1.24-4.07C228.36,116.08,232.29,101.42,243.87,95Z"/><path class="cls-6" d="M167.59,125.73a19,19,0,0,1,15.1-1.39c.06,0,.46.23.61.29a7.71,7.71,0,0,1,2.46,1.64,2.93,2.93,0,0,0,4.15.16,3,3,0,0,0,.18-4.24,11.8,11.8,0,0,0-1.41-1.21,29.72,29.72,0,0,1,22.4-10.44,28,28,0,0,1,12.23,2.72c-.63,1.77-1.18,3.48-1.62,5a24.76,24.76,0,0,0-16.82-1.42,2.95,2.95,0,1,0,1.45,5.71A19.1,19.1,0,0,1,220.08,124c-.09.3-.2.65-.26.81a12.26,12.26,0,0,1-2.31,2.57c-3,2.88-7.26,7-8.59,15.11l-47.63,1.19C159.17,135.24,161.45,129.22,167.59,125.73Z"/><path class="cls-7" d="M90.11,211a11.41,11.41,0,1,0-13.89,8.21A11.43,11.43,0,0,0,90.11,211Z"/><path class="cls-4" d="M79.07,222.11a14.39,14.39,0,0,1-3.49-.44,14,14,0,1,1,17-10h0a14,14,0,0,1-13.51,10.49Zm0-22.83a8.85,8.85,0,0,0-7.63,13.37,8.86,8.86,0,1,0,7.63-13.37Z"/><path class="cls-7" d="M62,227.4A16.15,16.15,0,1,0,42.38,239,16.16,16.16,0,0,0,62,227.4Z"/><path class="cls-4" d="M46.41,242.09a18.75,18.75,0,1,1,9.5-2.62A18.7,18.7,0,0,1,46.41,242.09Zm0-32.31a13.61,13.61,0,1,0,3.38.43A13.64,13.64,0,0,0,46.4,209.78Z"/><path class="cls-7" d="M111,212.11c-8-.05-11.81,3.61-12.62,6.76a4.69,4.69,0,0,0,1.72,5.18c.46.32.94.62,1.43.93,1.08.68,2.71,1.71,2.57,2.28-.06.22-.37.88-1.95,2-4.14,3-8.4,2.91-17.75,2.72-2,0-4.32-.08-6.87-.1C66.32,231.83,56.19,238.34,54,247a16.54,16.54,0,0,0,2.19,12.67,15.25,15.25,0,0,0,14,7.82c9-.23,18.92-7,23.66-16,6.06-11.58,11.06-12.88,19.33-15l2.9-.77c5.84-1.61,11.35-.58,13.31,1.34A1.87,1.87,0,0,1,130,239a5.88,5.88,0,0,1-1.78,2.58c-3.26,3.07-6.07,2.95-9.62,2.81s-7.44-.3-12.27,2.55c-5,3-8.21,6.69-9.26,10.77A12,12,0,0,0,98.43,267c2.79,4.72,9.53,11.67,23.32,5.2,4.56-2.15,6.71-6.13,8.8-10,3.66-6.76,7.11-13.15,24.13-9.61,26.25,5.47,27.43,29.68,27.47,30.71a1.54,1.54,0,0,0,2.93.59,5.74,5.74,0,0,0,.27-.8c1.73-6.74-4.93-31.58-18.61-47.84C152.2,217.94,122.9,212.18,111,212.11Z"/><path class="cls-4" d="M183.69,287.32a4.26,4.26,0,0,1-.8-.08,4.09,4.09,0,0,1-3.29-3.85c0-1-1.08-23.24-25.44-28.31-15.16-3.16-17.9,1.91-21.37,8.32-2.19,4-4.65,8.57-10,11.06-16.19,7.61-24-1.8-26.59-6.2A14.51,14.51,0,0,1,94.55,257c1.22-4.75,4.83-9,10.44-12.32s10-3.06,13.66-2.91c3.41.14,5.29.22,7.77-2.12a5.44,5.44,0,0,0,.89-1c-1.38-1-5.48-1.93-10.61-.53-1,.28-2,.54-2.92.78-8.11,2.12-12.18,3.18-17.73,13.76-5.14,9.82-16,17.13-25.85,17.38A17.74,17.74,0,0,1,53.94,261a19,19,0,0,1-2.45-14.6c2.5-9.75,13.6-17.05,25.86-17.05h.2c2.56,0,4.85.06,6.91.11,8.87.17,12.62.25,16-2.12l-.31-.2L100,227c-.45-.28-.9-.57-1.33-.87a7.29,7.29,0,0,1-2.72-7.89c1-4,5.56-8.68,14.93-8.68H111c12.29.08,42.56,6.05,57.68,24.05,13.53,16.08,21.26,41.83,19.13,50.1a7.82,7.82,0,0,1-.43,1.24A4.07,4.07,0,0,1,183.69,287.32Zm-67.52-40.48a15.8,15.8,0,0,0-8.59,2.27c-4.42,2.61-7.21,5.79-8.09,9.2a9.53,9.53,0,0,0,1.13,7.36c2.87,4.85,8.68,9.51,20,4.18,3.79-1.78,5.65-5.22,7.63-8.86,3.77-7,8-14.83,26.9-10.9,15.44,3.22,22.8,12.49,26.31,20.42-2.49-9.79-8-23.25-16.72-33.63-14-16.63-42.29-22.15-53.81-22.22h-.15c-6.9,0-9.52,3-10,4.86a2.21,2.21,0,0,0,.72,2.45c.37.26.75.5,1.13.74l.21.13c2,1.27,4.27,2.7,3.67,5.06-.29,1.14-1.23,2.24-2.94,3.46-4.82,3.49-9.65,3.39-19.28,3.2-2,0-4.3-.09-6.84-.1h-.17c-10,0-19,5.66-20.92,13.21a14,14,0,0,0,1.91,10.74A12.63,12.63,0,0,0,70.07,265c8.1-.21,17.13-6.37,21.47-14.66,6.59-12.57,12.61-14.14,20.95-16.32l2.86-.76c6.23-1.71,12.87-.87,15.77,2a4.46,4.46,0,0,1,1.3,4.4,8.21,8.21,0,0,1-2.5,3.79c-4,3.81-7.82,3.65-11.48,3.5C117.69,246.87,116.94,246.84,116.17,246.84Z"/><path class="cls-6" d="M156.1,270.24a2.46,2.46,0,0,0,1.94-1.82,2.57,2.57,0,0,0,.08-.62,2.47,2.47,0,0,0-2-2.43c-.93-.16-23-3.87-27.53,11.82l-.15.55c-1.11,4.35-.24,8.15,2.36,10.2a5.53,5.53,0,0,0,6,.71c2.53-1.34,4.34-4.42,5.91-7.56l.17-.35c.07-.13.15-.3.25-.52C144,278.17,146.89,271.92,156.1,270.24Z"/><path d="M134.37,291.77a8.41,8.41,0,0,1-5.19-1.83c-3.41-2.69-4.62-7.48-3.25-12.83l.16-.59c4.15-14.27,21.08-15.29,30.43-13.66a5,5,0,0,1,4.15,4.93,4.89,4.89,0,0,1-.16,1.26,5,5,0,0,1-3.95,3.69h0c-7.92,1.45-10.3,6.61-11.2,8.55-.15.32-.23.49-.3.62l-.16.33c-1.76,3.5-3.82,7-7,8.67A7.58,7.58,0,0,1,134.37,291.77Zm15.35-24.38c-6.41,0-16.11,1.52-18.72,10.51l-.14.51c-.85,3.3-.3,6.13,1.47,7.53a3,3,0,0,0,3.19.46c1.91-1,3.51-3.83,4.83-6.45l.34-.69a19.44,19.44,0,0,1,14.74-11.49A43.41,43.41,0,0,0,149.72,267.39Z"/><polygon class="cls-8" points="87.92 272.49 427.75 193.96 427.75 280.45 87.92 358.98 87.92 272.49"/><path class="cls-2" d="M84.68,269.24l-.65.16v94.48L431,283.7l.66-.15V189.06Zm7.14,84.84V275.59l332-76.73v78.49Z"/><path class="cls-7" d="M417.64,188.9c-2.6-5.42-10.4-8.51-18.16-7.19-1.77.3-3.34.59-4.75.85-6.46,1.18-9.4,1.72-12.63.24-1.23-.57-1.53-1-1.59-1.11-.17-.35.84-1.2,1.5-1.77.3-.26.6-.51.88-.78a3,3,0,0,0,.57-3.57c-.94-2-4-3.92-9.56-3-8.24,1.4-27.85,8.49-35.84,21.43a57.32,57.32,0,0,0-7.26,20.46l5.58-1.21c2.25-3.55,6-7,12.13-9.3,11.36-4.24,16.64-3.61,19.52-.17,1.64,1.95,3.34,4,6.28,4.73,8.89,2.29,12.18-2.27,13.36-5.19a6.48,6.48,0,0,0-.13-5.35c-1-2.19-3.34-4-6.63-5.14a12.77,12.77,0,0,0-7.58-.23c-2.1.43-3.45,1.75-7.78,1.14a4.1,4.1,0,0,1-1.55-1.48,1.19,1.19,0,0,1,.2-1.34c1.12-1.47,4.81-2.77,9.06-2.39l2.1.18c6,.47,9.61.75,15.21,7.62,4.37,5.37,12.08,8.63,18.33,7.77a10.63,10.63,0,0,0,8.76-6.7A10.4,10.4,0,0,0,417.64,188.9Z"/><path class="cls-4" d="M327.7,217.77l.58-3.69a60.76,60.76,0,0,1,7.61-21.4c8.45-13.69,29-21.14,37.58-22.6,6.95-1.18,11,1.63,12.29,4.39a5.53,5.53,0,0,1-1.1,6.51c2,.42,4.42,0,9.61-.93,1.42-.26,3-.55,4.78-.85,9-1.54,17.77,2.09,20.89,8.6h0a12.86,12.86,0,0,1,.08,10.58,13.23,13.23,0,0,1-10.77,8.26c-6.24.87-13.49-1.72-18.54-6.43a9.36,9.36,0,0,1-.68,4.08c-1.2,3-5.18,9.59-16.36,6.71-3.72-1-5.86-3.51-7.58-5.55-1.59-1.89-4.91-3.49-16.69.91a21.18,21.18,0,0,0-10.87,8.27l-.57.9Zm49-42.88a13.67,13.67,0,0,0-2.33.21c-7.56,1.29-26.64,8.17-34.1,20.26a52.73,52.73,0,0,0-6.2,15.81l.8-.17a26.46,26.46,0,0,1,12.79-9.41c11.68-4.37,18.37-4.2,22.36.57,1.52,1.8,2.82,3.36,5,3.91,5.35,1.37,8.83.13,10.36-3.68a4,4,0,0,0-.05-3.3c-.74-1.54-2.59-2.91-5.2-3.84a10.42,10.42,0,0,0-6.21-.14,12.07,12.07,0,0,0-1.32.41,13.51,13.51,0,0,1-7.33.76l-.53-.08-.46-.28a6.32,6.32,0,0,1-2.49-2.54,3.74,3.74,0,0,1,.46-4c1.84-2.43,6.49-3.82,11.32-3.39.68.07,1.34.12,2,.17,6.31.49,10.8.84,17.08,8.56,3.79,4.65,10.67,7.59,16,6.85a8,8,0,0,0,6.74-5.11,7.91,7.91,0,0,0,0-6.48c-2.09-4.36-8.87-6.9-15.44-5.78-1.75.3-3.31.58-4.71.84-6.79,1.24-10.19,1.87-14.15.05a5.36,5.36,0,0,1-2.83-2.31c-1-2.13.89-3.74,2.14-4.82.36-.3.58-.49.79-.69s.22-.2,0-.62C380.83,176,379.49,174.89,376.66,174.89Z"/><path class="cls-7" d="M435.51,219.93a8.94,8.94,0,1,0-11.83-4.48A9,9,0,0,0,435.51,219.93Z"/><path class="cls-4" d="M431.84,223.27a11.5,11.5,0,1,1,4.71-1h0A11.38,11.38,0,0,1,431.84,223.27Zm0-17.88a6.5,6.5,0,0,0-2.62.56,6.4,6.4,0,0,0,5.26,11.66h0a6.41,6.41,0,0,0,3.2-8.46,6.44,6.44,0,0,0-5.84-3.76Z"/><path class="cls-2" d="M236.45,128.13a2.71,2.71,0,0,0,.7-.13,2.94,2.94,0,0,0,2.06-3c0-.71-.88-17.12,14.38-21.91l.48-.14a2.95,2.95,0,0,0-1.65-5.66l-.59.18c-15.68,4.92-19,20.33-18.5,27.89A2.94,2.94,0,0,0,236.45,128.13Z"/><rect class="cls-2" x="319.48" y="210.97" width="35.66" height="6.94" transform="translate(-39.52 81.16) rotate(-12.97)"/><path class="cls-6" d="M282.74,74.45,304,58a7.33,7.33,0,0,0,.73-.84A7.75,7.75,0,1,0,292.25,48a9.37,9.37,0,0,0-.59,1"/><path class="cls-6" d="M260.81,71.84,272.12,47.5a7.4,7.4,0,0,0,.26-1.08A7.75,7.75,0,1,0,257.08,44a8.3,8.3,0,0,0-.09,1.11"/><path class="cls-6" d="M233,70.16l.31-26.84a10,10,0,0,0-.2-1.09,7.75,7.75,0,1,0-15,4,7.15,7.15,0,0,0,.38,1"/><path class="cls-6" d="M209.16,89,198,64.61a6.82,6.82,0,0,0-.65-.9,7.75,7.75,0,1,0-11.8,10,7.28,7.28,0,0,0,.78.79"/><path class="cls-6" d="M187.54,103.11,167.38,85.39a10,10,0,0,0-1-.56,7.75,7.75,0,0,0-6.69,14,8.24,8.24,0,0,0,1,.4"/><path class="cls-6" d="M102.47,283.31,112.61,281a14.81,14.81,0,0,1,3.25-.41,7.32,7.32,0,0,1,3.56.82,7.53,7.53,0,0,1,3.5,5.28,19.55,19.55,0,0,1,.43,2.91l.82,10.8a8.63,8.63,0,0,1-1.42,6.18l.45.27a5.75,5.75,0,0,1,2.31,3.74l.15.67a4,4,0,0,1,.12,1L126.7,325c.23,3.55-.46,6.37-2,8.42s-4,3.46-7.37,4.22L106.74,340Zm11.64,47.13,2.15-.49c1.24-.28,2.48-.92,2.28-3.54l-.87-12c0-.27,0-.53-.08-.76a4.19,4.19,0,0,0-.1-.57,1.59,1.59,0,0,0-.47-1,1,1,0,0,0-.46-.07,5.17,5.17,0,0,0-1.12.15l-2.64.61Zm-1.88-24.86,2.22-.51a2.82,2.82,0,0,0,1.69-.86,3.57,3.57,0,0,0,.38-2.09l-.86-11.27c0-.26,0-.47-.06-.68a4.18,4.18,0,0,0-.09-.53c-.15-.65-.35-.87-.41-.9a1.29,1.29,0,0,0-.49-.07,4.42,4.42,0,0,0-1,.13l-2.57.59Z"/><path class="cls-2" d="M115.86,282a6,6,0,0,1,2.88.64q2.06,1.13,2.8,4.36a19.66,19.66,0,0,1,.4,2.7l.82,10.8c.28,3.35-.71,5.6-3,6.74a4.87,4.87,0,0,1,2.66.79,4.4,4.4,0,0,1,1.7,2.87q.08.32.15.66a3.32,3.32,0,0,1,.08.69l.93,12.83c.2,3.2-.38,5.68-1.75,7.46a11,11,0,0,1-6.56,3.7l-9,2-4-53.86,9-2.05a13.72,13.72,0,0,1,2.93-.37m-4.92,25.33,3.83-.88a4,4,0,0,0,2.54-1.45,4.79,4.79,0,0,0,.63-2.93l-.87-11.32c0-.27,0-.52-.06-.76a6.66,6.66,0,0,0-.12-.67,2.5,2.5,0,0,0-1.18-1.86,2.6,2.6,0,0,0-1.1-.21,5.55,5.55,0,0,0-1.32.17l-3.76.86,1.41,19.05m1.88,24.86,3.76-.86c2.46-.56,3.58-2.24,3.38-5l-.87-12c0-.31-.06-.59-.09-.85s-.08-.49-.13-.7a2.71,2.71,0,0,0-1.14-1.87,2.36,2.36,0,0,0-1.17-.26,7,7,0,0,0-1.44.19l-3.82.88,1.52,20.48m3-53h0a15.86,15.86,0,0,0-3.57.44l-9,2.05-2.38.54.19,2.44,4,53.86.24,3.28,3.22-.73,9-2.05a13.8,13.8,0,0,0,8.18-4.73c1.79-2.33,2.57-5.48,2.33-9.37l-.92-12.79a6.68,6.68,0,0,0-.15-1.18l-.06-.24-.09-.42a7.59,7.59,0,0,0-2.23-4.09,11,11,0,0,0,.91-5.93l-.81-10.76a22.37,22.37,0,0,0-.47-3.13c-.68-3-2.09-5.05-4.19-6.2a8.72,8.72,0,0,0-4.25-1Zm-3.32,11.33,1.38-.32.24-.05,0,.22a4.49,4.49,0,0,1,0,.55V291l.86,11.27a2.8,2.8,0,0,1-.12,1.15,2.6,2.6,0,0,1-.84.31l-.61.14-1-13.33Zm1.77,23.43,1.45-.33.37-.08c0,.1,0,.21.06.34s0,.42.07.67l.87,12c.13,1.76-.42,1.88-1.18,2.06l-.55.12-1.09-14.76Z"/><path class="cls-6" d="M129.83,277.05l8.51-1.94,12,55-8,1.82-1.93-8.75-6,1.37-.53,9.31-8,1.82Zm5.83,27.53q-.36,6.06-.75,12.25l4-.91q-1.24-6-2.51-11.94c-.18-.83-.35-1.68-.53-2.53Z"/><path class="cls-2" d="M137.26,276.81,148.62,329l-5.19,1.19-1.93-8.75-8.41,1.92-.53,9.31-5.06,1.16,3.68-55.63,6.08-1.39m-3.88,41.83,7.17-1.64q-1.4-6.74-2.79-13.31T135,290.18c-.22,4.88-.47,9.66-.75,14.31s-.56,9.38-.86,14.15m6-45.24-2.79.64-6.09,1.4-2.06.47-.14,2.1-3.67,55.63-.25,3.8,3.72-.85,5.05-1.15,2.08-.48.12-2.13.41-7.18,3.54-.81,1.32,6,.61,2.79,2.79-.64,5.19-1.19,2.74-.62-.6-2.75L140,276.21l-.61-2.81Zm-3,41.63c.07-1,.13-2,.19-3,.19.92.38,1.85.58,2.79l-.77.18Z"/><path class="cls-6" d="M146.55,273.23l9.73-2.23a18.69,18.69,0,0,1,4.08-.51,9.09,9.09,0,0,1,3.56.64c2.08.87,3.48,2.83,4.17,5.82a20.37,20.37,0,0,1,.4,2.78l.8,10.74c.24,4-.89,7.22-3.36,9.46,1.18,3.86,2.28,7.7,3.27,11.43,1.05,4,2.11,8.07,3.14,12.18l.36,1.4-8.47,1.94-.32-1.38q-1.4-6.13-2.76-11.91c-.79-3.37-1.68-6.81-2.65-10.23l-1.54.35,1.85,24.41-8,1.83Zm9.88,23.1,1.81-.41a4.14,4.14,0,0,0,2.47-1.29,4.2,4.2,0,0,0,.51-2.69l-.74-10.14c0-.3-.07-.6-.11-.9s-.1-.56-.16-.82a2,2,0,0,0-.72-1.35,1.65,1.65,0,0,0-.73-.12,7,7,0,0,0-1.48.2l-2.16.49Z"/><path class="cls-2" d="M160.36,271.9a7.83,7.83,0,0,1,3,.53q2.46,1,3.33,4.83a17.67,17.67,0,0,1,.38,2.58l.8,10.73c.23,3.95-1,6.9-3.58,8.88q1.92,6.21,3.53,12.27T171,323.89l-5.67,1.29q-1.41-6.14-2.77-11.91t-3.06-11.65a3.82,3.82,0,0,1-.6.2l-.61.14-2.8.64L157.3,327l-5.19,1.19-4.06-53.86,8.55-2a17,17,0,0,1,3.76-.48m-5.22,26.18,3.42-.78a5.26,5.26,0,0,0,3.31-1.86,5.41,5.41,0,0,0,.76-3.6l-.74-10.15c0-.35-.07-.68-.12-1s-.11-.63-.18-.93a3.22,3.22,0,0,0-1.42-2.27,2.89,2.89,0,0,0-1.41-.3,8.12,8.12,0,0,0-1.8.24l-3.35.76,1.53,19.89m5.22-29h0a19.71,19.71,0,0,0-4.39.55l-8.55,1.95-2.38.55.19,2.43,4.05,53.86.24,3.29,3.22-.73,5.19-1.19,2.38-.55-.18-2.43-1.25-16.55c.31,1.23.61,2.45.89,3.67.91,3.84,1.83,7.84,2.76,11.9l.63,2.76,2.77-.63,5.67-1.3,2.83-.65-.71-2.81c-1-4.11-2.1-8.21-3.15-12.19-.92-3.49-1.94-7.07-3-10.67,1.84-2,3.45-5.1,3.17-9.92l-.8-10.78a21.74,21.74,0,0,0-.44-3c-.79-3.46-2.48-5.75-5-6.81a10.57,10.57,0,0,0-4.11-.75Zm-3.73,11.34,1-.22a5.88,5.88,0,0,1,1.13-.16c0,.09.07.21.11.37s.1.46.14.72.07.53.09.81l.74,10.12a2.76,2.76,0,0,1-.25,1.76s-.33.43-1.62.72l-.21.05-1.09-14.17Z"/><path class="cls-6" d="M178.53,265.91l9.73-2.22a18.15,18.15,0,0,1,4.08-.52,9.09,9.09,0,0,1,3.56.64c2.08.87,3.48,2.83,4.17,5.82a19.12,19.12,0,0,1,.4,2.78l.81,10.74c.23,4.05-.9,7.22-3.36,9.47,1.18,3.86,2.27,7.7,3.26,11.42,1,4,2.11,8.08,3.14,12.18l.36,1.41-8.47,1.94-.31-1.39c-.94-4.09-1.86-8.05-2.76-11.91-.79-3.35-1.69-6.79-2.66-10.22l-1.54.35,1.85,24.41-8,1.82ZM188.41,289l1.81-.42a4.09,4.09,0,0,0,2.48-1.29,4.26,4.26,0,0,0,.5-2.69l-.74-10.14c0-.29-.07-.6-.11-.89s-.1-.57-.16-.83a2,2,0,0,0-.72-1.34,1.45,1.45,0,0,0-.73-.13,7.05,7.05,0,0,0-1.48.2l-2.16.5Z"/><path class="cls-2" d="M192.34,264.59a7.61,7.61,0,0,1,3,.53c1.64.69,2.76,2.3,3.34,4.83a19.32,19.32,0,0,1,.37,2.57l.8,10.74q.34,5.91-3.58,8.87,1.92,6.22,3.53,12.28T203,316.57l-5.67,1.3q-1.41-6.14-2.76-11.92t-3.06-11.65a3.7,3.7,0,0,1-.61.21l-.61.14-2.8.64,1.84,24.41-5.19,1.18L180,267l8.54-1.95a17,17,0,0,1,3.76-.48m-5.22,26.18,3.42-.79a5.29,5.29,0,0,0,3.31-1.85,5.46,5.46,0,0,0,.76-3.61l-.74-10.14c0-.35-.07-.69-.12-1s-.11-.63-.17-.92a3.27,3.27,0,0,0-1.42-2.28,3.09,3.09,0,0,0-1.42-.29,8,8,0,0,0-1.8.23l-3.35.77,1.53,19.89m5.22-29h0a20.31,20.31,0,0,0-4.39.55l-8.55,2-2.37.54.18,2.44,4,53.86.25,3.28,3.21-.73,5.19-1.19,2.38-.54-.18-2.44-1.25-16.54c.31,1.23.61,2.45.89,3.66.94,4,1.87,8,2.76,11.9l.64,2.77,2.76-.64,5.67-1.29,2.83-.65-.71-2.81c-1-4.11-2.09-8.21-3.15-12.2-.92-3.48-1.94-7.06-3-10.66,1.84-2,3.45-5.11,3.17-9.93l-.8-10.78a22,22,0,0,0-.44-3c-.79-3.46-2.47-5.75-5-6.81a10.57,10.57,0,0,0-4.11-.75Zm-3.73,11.35,1-.22a6,6,0,0,1,1.12-.17,2.45,2.45,0,0,1,.11.37c.05.23.1.48.14.72s.07.53.1.81l.73,10.12a2.75,2.75,0,0,1-.24,1.76c0,.05-.34.43-1.63.73l-.21,0-1.09-14.17Z"/><path class="cls-6" d="M211.58,316.31c-4.05,0-6.7-2.22-7.66-6.42a14.23,14.23,0,0,1-.32-2.45l-2.72-36.69c-.49-6.79,2.69-11.17,9.19-12.65a14.69,14.69,0,0,1,3.27-.41c4.07,0,6.73,2.22,7.69,6.42l.23,1a5.92,5.92,0,0,1,.16,1.41l2.71,36.67c.49,6.8-2.73,11.18-9.32,12.69A14.9,14.9,0,0,1,211.58,316.31Zm.39-50.53a3.88,3.88,0,0,0-.84.11c-1.26.29-2.41.91-2.22,3.47l2.72,36.72a1.34,1.34,0,0,0,0,.37l.11.51c.31,1.37.92,1.37,1.32,1.37a3.7,3.7,0,0,0,.75-.1c1.24-.28,2.47-.93,2.27-3.61l-2.72-36.73a2.39,2.39,0,0,0,0-.37l-.11-.49C213,265.88,212.49,265.78,212,265.78Z"/><path class="cls-2" d="M213.34,259.11q5.08,0,6.3,5.31l.24,1a5.24,5.24,0,0,1,.12,1.14l2.72,36.73q.66,9.17-8.23,11.2a13.12,13.12,0,0,1-2.91.36q-5.06,0-6.28-5.32a12.11,12.11,0,0,1-.28-2.19l-2.72-36.73q-.66-9.16,8.09-11.17a13,13,0,0,1,3-.37m-.25,50.63a4.72,4.72,0,0,0,1.07-.13q3.69-.84,3.36-5.09l-2.71-36.73a3.29,3.29,0,0,0-.07-.59c0-.16-.07-.33-.11-.5a2.58,2.58,0,0,0-2.66-2.33,4.87,4.87,0,0,0-1.15.14q-3.63.83-3.33,4.95l2.72,36.73a2.52,2.52,0,0,0,.06.58l.12.51q.56,2.46,2.7,2.46m.25-53.46h0a15.76,15.76,0,0,0-3.59.44c-7.17,1.63-10.82,6.66-10.28,14.13l2.72,36.7a14.5,14.5,0,0,0,.35,2.65c1.11,4.86,4.32,7.53,9,7.53a16,16,0,0,0,3.55-.44c7.25-1.66,11-6.69,10.42-14.17l-2.71-36.62a8.21,8.21,0,0,0-.19-1.67l-.12-.52-.12-.53c-1.11-4.84-4.33-7.5-9.07-7.5Zm-.29,49.91V306l-2.72-36.73c-.12-1.69.4-1.81,1.13-2l.38-.06,0,.12.11.46V268l2.71,36.72c.14,1.83-.43,2-1.16,2.13l-.31,0-.07-.25-.05-.25,0-.21Z"/><path class="cls-6" d="M233.52,311.29c-4.05,0-6.7-2.22-7.66-6.42a14.1,14.1,0,0,1-.32-2.45l-2.72-36.68c-.49-6.8,2.69-11.17,9.19-12.66a14.63,14.63,0,0,1,3.26-.4c4.07,0,6.73,2.21,7.69,6.41l.24,1a6.33,6.33,0,0,1,.15,1.4l2.72,36.67c.49,6.8-2.74,11.18-9.32,12.69A14.31,14.31,0,0,1,233.52,311.29Zm.38-50.52a3.8,3.8,0,0,0-.83.1c-1.26.29-2.41.91-2.23,3.47l2.72,36.72c0,.25,0,.34,0,.38l.12.5c.31,1.37.92,1.37,1.32,1.37a3.7,3.7,0,0,0,.75-.1c1.24-.28,2.47-.93,2.27-3.61l-2.72-36.72a2.44,2.44,0,0,0,0-.38l-.12-.5C234.92,260.86,234.43,260.77,233.9,260.77Z"/><path class="cls-2" d="M235.27,254.09q5.1,0,6.31,5.31l.24,1a5.24,5.24,0,0,1,.12,1.14l2.72,36.73q.65,9.17-8.23,11.2a13.27,13.27,0,0,1-2.91.36c-3.37,0-5.47-1.77-6.28-5.32a13,13,0,0,1-.29-2.19l-2.71-36.73q-.66-9.17,8.08-11.17a13.74,13.74,0,0,1,3-.37M235,304.73a4.84,4.84,0,0,0,1.07-.14q3.69-.84,3.36-5.09l-2.72-36.73a2.52,2.52,0,0,0-.06-.58c0-.17-.08-.34-.11-.51a2.59,2.59,0,0,0-2.67-2.33,4.93,4.93,0,0,0-1.15.14q-3.62.83-3.32,4.95l2.72,36.73a2.46,2.46,0,0,0,.06.58l.12.51c.37,1.64,1.27,2.47,2.7,2.47m.24-53.47h0a16.33,16.33,0,0,0-3.58.44c-7.17,1.64-10.82,6.66-10.28,14.14l2.71,36.69a15.67,15.67,0,0,0,.36,2.66c1.11,4.85,4.32,7.52,9,7.52a15.92,15.92,0,0,0,3.54-.44c7.26-1.66,11-6.69,10.42-14.17l-2.71-36.62a7,7,0,0,0-.19-1.67l-.12-.54-.11-.5c-1.11-4.85-4.33-7.51-9.08-7.51ZM235,301.17V301l-2.72-36.73c-.12-1.69.4-1.81,1.13-2l.38-.06,0,.12,0,.21.05.25V263l2.72,36.73c.14,1.82-.44,2-1.17,2.12a2.32,2.32,0,0,1-.3.05c0-.06,0-.15-.07-.25l-.06-.26,0-.2Z"/><path class="cls-6" d="M244.27,250.87l9.56-2.18,7.24,32.43,2.23-34.6,9.81-2.24L277.38,301l-7.65,1.75-1.4-17.92c-.09-1.11-.16-2.22-.24-3.31l-1.68,22-7,1.59-5-21.44c.11,1.55.23,3.12.34,4.7l1.38,17.5-7.59,1.73Z"/><path class="cls-2" d="M271.82,246l4.05,53.86L271,301l-1.28-16.28q-.44-6-.8-11.67t-.73-11.68l-3.14,41-4.58,1.05-9-38.23q.5,5.94.94,11.64t.87,11.65l1.28,16.28-4.79,1.09L245.78,252l7-1.59,9.1,40.72,2.79-43.44,7.18-1.64m2.58-3.5-3.21.73L264,244.9l-2.06.47-.14,2.12-1.52,23.64-4.77-21.36L254.9,247l-2.78.63-7,1.6-2.38.54.18,2.44L247,306.06l.25,3.29,3.21-.74,4.79-1.09,2.39-.55-.2-2.44-.2-2.56.49,2.08.65,2.75,2.75-.63,4.57-1.05,2-.46.16-2.09.2-2.55.09,1.2.26,3.28,3.2-.74,4.85-1.11,2.38-.54-.18-2.44-4.05-53.86-.25-3.28Z"/><polygon class="cls-6" points="284.53 241.66 292.52 239.84 294.34 263.85 298.79 262.83 296.96 238.82 304.96 236.99 309.22 293.71 301.23 295.54 299.34 270.61 294.89 271.63 296.79 296.56 288.79 298.39 284.53 241.66"/><path class="cls-2" d="M303.67,238.74l4.05,53.86-5.2,1.19-1.89-24.93-7.24,1.66,1.89,24.93-5.2,1.19L286,242.77l5.2-1.18,1.82,24,7.25-1.66-1.83-24,5.2-1.19m2.58-3.5L303,236l-5.19,1.18-2.38.55.18,2.43,1.64,21.58-1.65.38-1.57-20.73-.25-3.28-3.21.73L285.4,240l-2.38.54.18,2.44,4.06,53.86.24,3.29,3.22-.74,5.19-1.19,2.38-.54-.18-2.44-1.71-22.49,1.65-.38L299.69,294l.25,3.28,3.22-.73,5.19-1.19,2.38-.55-.19-2.43-4.05-53.86-.24-3.29Z"/><polygon class="cls-6" points="307.21 236.47 324.92 232.43 325.49 240.33 315.79 242.55 317.01 258.6 323.86 257.03 324.41 264.88 317.58 266.44 318.86 283.61 328.89 281.31 329.53 289.07 311.48 293.2 307.21 236.47"/><path class="cls-2" d="M323.62,234.18l.36,5-9.7,2.22,1.45,18.91,6.83-1.57.35,5-6.84,1.57,1.49,20,10.05-2.3.4,4.9-15.24,3.49-4-53.86,14.9-3.41m2.59-3.51-3.22.74-14.9,3.41-2.38.54.18,2.44,4.05,53.86.25,3.29,3.22-.74,15.24-3.49,2.39-.54-.2-2.45-.4-4.9-.27-3.27-3.19.73-6.83,1.57-1.07-14.31,4.46-1,2.37-.54-.17-2.42-.35-5-.23-3.31-3.23.74-3.63.83-1-13.19,7.33-1.67,2.37-.55-.18-2.42-.36-5.05-.24-3.3Z"/><path class="cls-6" d="M326.42,232.08l9.73-2.23a18.69,18.69,0,0,1,4.08-.51,9.12,9.12,0,0,1,3.56.64c2.08.87,3.48,2.83,4.17,5.82a20.6,20.6,0,0,1,.4,2.78l.8,10.74c.24,4.05-.89,7.22-3.36,9.47,1.18,3.85,2.28,7.69,3.27,11.42,1,3.9,2.09,8,3.14,12.18l.36,1.41-8.47,1.93-.32-1.38q-1.39-6.14-2.76-11.91c-.79-3.35-1.68-6.79-2.65-10.22l-1.54.35L338.68,287l-8,1.82Zm9.88,23.11,1.81-.42a4.09,4.09,0,0,0,2.47-1.29,4.18,4.18,0,0,0,.51-2.69l-.74-10.14c0-.29-.07-.6-.11-.9s-.1-.55-.16-.82a2,2,0,0,0-.72-1.34,1.45,1.45,0,0,0-.73-.13,6.89,6.89,0,0,0-1.48.2l-2.16.5Z"/><path class="cls-2" d="M340.23,230.76a7.64,7.64,0,0,1,3,.53q2.46,1,3.33,4.83a17.32,17.32,0,0,1,.38,2.57l.8,10.74q.35,5.91-3.58,8.87,1.92,6.22,3.53,12.28t3.14,12.16l-5.67,1.3q-1.41-6.15-2.77-11.92t-3.06-11.65a3.82,3.82,0,0,1-.6.2l-.61.15-2.8.64,1.84,24.41L332,287.05l-4.05-53.86,8.54-1.95a17,17,0,0,1,3.76-.48M335,256.93l3.42-.78a5.29,5.29,0,0,0,3.31-1.85,5.46,5.46,0,0,0,.76-3.61l-.74-10.14c0-.35-.07-.69-.12-1s-.11-.63-.18-.92a3.27,3.27,0,0,0-1.41-2.28,3.09,3.09,0,0,0-1.42-.29,8,8,0,0,0-1.8.23l-3.35.77L335,256.93m5.22-29h0a20.24,20.24,0,0,0-4.39.55l-8.55,2-2.38.54.19,2.44,4,53.86.24,3.28,3.22-.73,5.19-1.19,2.38-.54-.18-2.44-1.25-16.54c.31,1.22.61,2.45.89,3.66.9,3.84,1.83,7.84,2.76,11.9l.63,2.76,2.77-.63,5.67-1.3,2.83-.64-.71-2.82c-1.06-4.18-2.12-8.29-3.15-12.19-.92-3.49-1.94-7.07-3-10.66,1.84-2,3.45-5.11,3.17-9.93l-.8-10.78a22,22,0,0,0-.44-3c-.79-3.46-2.48-5.75-5-6.81a10.57,10.57,0,0,0-4.11-.75Zm-3.73,11.35,1-.22a6.18,6.18,0,0,1,1.13-.17c0,.09.07.21.11.37s.1.48.13.72.08.53.1.81l.74,10.12a2.72,2.72,0,0,1-.25,1.76c0,.05-.33.43-1.63.73l-.2.05-1.09-14.17Z"/><path class="cls-6" d="M359.47,282.48c-4.05,0-6.7-2.22-7.66-6.42a14.23,14.23,0,0,1-.32-2.45l-2.72-36.68c-.49-6.8,2.69-11.18,9.19-12.66a14.67,14.67,0,0,1,3.26-.41c4.07,0,6.73,2.22,7.69,6.41l.24,1a6.33,6.33,0,0,1,.15,1.4L372,269.39c.49,6.8-2.74,11.18-9.32,12.69A14.9,14.9,0,0,1,359.47,282.48Zm.38-50.53a3.87,3.87,0,0,0-.83.11c-1.26.29-2.41.91-2.23,3.47l2.72,36.72c0,.25,0,.34,0,.37l.12.51c.31,1.36.92,1.36,1.32,1.36h0a3.62,3.62,0,0,0,.75-.09c1.24-.28,2.47-.93,2.27-3.61l-2.72-36.73a2.39,2.39,0,0,0,0-.37l-.12-.49C360.87,232.05,360.38,232,359.85,232Z"/><path class="cls-2" d="M361.22,225.28q5.1,0,6.31,5.31l.24,1a5.24,5.24,0,0,1,.12,1.14l2.72,36.73q.64,9.17-8.23,11.2a13.27,13.27,0,0,1-2.91.36c-3.37,0-5.47-1.77-6.28-5.32a12.23,12.23,0,0,1-.28-2.2l-2.72-36.72q-.66-9.16,8.08-11.17a13.13,13.13,0,0,1,3-.37M361,275.91a4.79,4.79,0,0,0,1.07-.13q3.69-.84,3.36-5.1L362.69,234a2.61,2.61,0,0,0-.06-.59l-.12-.5a2.57,2.57,0,0,0-2.66-2.33,4.79,4.79,0,0,0-1.14.14q-3.63.82-3.33,4.95l2.72,36.73a2.52,2.52,0,0,0,.06.58l.12.51q.56,2.46,2.7,2.46m.24-53.47h0a16.33,16.33,0,0,0-3.58.44c-7.17,1.64-10.82,6.67-10.28,14.14l2.71,36.7a15.41,15.41,0,0,0,.36,2.65c1.11,4.86,4.32,7.53,9,7.53a15.92,15.92,0,0,0,3.54-.44c7.26-1.66,11-6.69,10.43-14.17l-2.72-36.62a7,7,0,0,0-.19-1.67l-.12-.54-.11-.5c-1.11-4.85-4.33-7.52-9.08-7.52Zm-.28,49.91v-.2l-2.72-36.73c-.12-1.69.4-1.81,1.13-2l.38-.06a1,1,0,0,1,0,.12l.1.46a.13.13,0,0,1,0,.06v.15l2.72,36.72c.14,1.83-.44,2-1.17,2.13l-.3.05-.07-.25-.06-.26,0-.21Z"/><polygon class="cls-6" points="370.36 222.03 388.06 217.98 388.63 225.89 378.93 228.1 380.16 244.15 387.01 242.59 387.56 250.43 380.73 251.99 382 269.16 392.04 266.87 392.67 274.62 374.63 278.75 370.36 222.03"/><path class="cls-2" d="M386.77,219.73l.36,5L377.42,227l1.45,18.91,6.84-1.56.35,5-6.84,1.56,1.49,20,10.05-2.3.4,4.9L375.92,277l-4.05-53.86,14.9-3.41m2.59-3.5-3.23.74-14.9,3.4-2.37.55.18,2.43,4,53.86.25,3.29,3.21-.73,15.24-3.49,2.4-.55-.2-2.45-.41-4.9-.26-3.26-3.2.73-6.83,1.56-1.06-14.31,4.46-1,2.36-.54-.16-2.42-.35-5-.23-3.31-3.24.74-3.62.83-1-13.19,7.32-1.67,2.37-.54-.17-2.43-.36-5-.24-3.3Z"/><path class="cls-6" d="M400.12,273.17a7.86,7.86,0,0,1-3.81-.88,7.74,7.74,0,0,1-3.66-5.37,14,14,0,0,1-.3-2.39l-.91-12.64,7.78-1.78.92,12.38c0,.26,0,.47.06.68a3.89,3.89,0,0,0,.09.53,2.39,2.39,0,0,0,.71,1.36,1,1,0,0,0,.59.14,3.56,3.56,0,0,0,.8-.1,2.82,2.82,0,0,0,1.82-1,4.24,4.24,0,0,0,.44-2.37c-.15-2.1-.28-3.8-.38-5.07s-.17-2.22-.23-2.89-.1-1.09-.13-1.34-.06-.38-.09-.51a2.94,2.94,0,0,0-.42-1,6.24,6.24,0,0,0-.92-1c-.69-.55-1.42-1.11-2.14-1.61s-1.48-1-2.24-1.53-1.58-1.09-2.4-1.69-1.72-1.32-2.64-2.12a6.71,6.71,0,0,1-1.63-1.88,7.93,7.93,0,0,1-.8-2.15c-.07-.29-.13-.61-.18-1s-.12-.9-.21-1.72-.18-1.88-.28-3.28-.22-3.24-.38-5.61c-.5-6.6,2.68-10.89,9.18-12.38a16,16,0,0,1,3.48-.44,7.52,7.52,0,0,1,3.56.79,7.33,7.33,0,0,1,3.51,5.15,18.11,18.11,0,0,1,.39,2.73l.83,11-7.66,1.75-.77-10.82c0-.25,0-.47-.07-.69s-.06-.4-.1-.57a2,2,0,0,0-.62-1.17.86.86,0,0,0-.5-.11,3.6,3.6,0,0,0-.85.12c-1.74.39-2.4,1.33-2.29,3.23l.39,5.12c.09,1.24.16,2.18.22,2.83s.08,1.05.11,1.25a2.19,2.19,0,0,0,.06.37,2,2,0,0,0,.25.66,4.33,4.33,0,0,0,.64.68,31.84,31.84,0,0,0,4.34,3.29,44.33,44.33,0,0,1,4.81,3.5,9.45,9.45,0,0,1,2,2.22,9.27,9.27,0,0,1,1.14,2.88c.07.28.13.62.19,1s.13,1,.2,1.85.14,1.87.24,3.25.24,3.2.43,5.5a12.28,12.28,0,0,1-1.75,8c-1.43,2.14-3.93,3.63-7.42,4.43A15.35,15.35,0,0,1,400.12,273.17Z"/><path class="cls-2" d="M402.24,215.91a6.09,6.09,0,0,1,2.89.62,6,6,0,0,1,2.8,4.22,17.81,17.81,0,0,1,.36,2.51l.73,9.82-4.85,1.11-.66-9.17c0-.26,0-.52-.07-.78s-.08-.49-.13-.7a3.34,3.34,0,0,0-1.13-2,2.21,2.21,0,0,0-1.37-.39,5.79,5.79,0,0,0-1.17.14c-2.41.56-3.54,2.12-3.38,4.71.16,2.18.29,3.89.38,5.13s.17,2.2.22,2.85.09,1.09.12,1.3,0,.39.08.52a3.38,3.38,0,0,0,.48,1.15,5.6,5.6,0,0,0,.86.94,33.67,33.67,0,0,0,4.53,3.42,45.1,45.1,0,0,1,4.66,3.4,7.84,7.84,0,0,1,1.68,1.87,7.74,7.74,0,0,1,1,2.45c.06.25.12.56.17.92s.12.94.18,1.73.14,1.86.24,3.24.24,3.21.44,5.52a10.89,10.89,0,0,1-1.51,7.07c-1.24,1.84-3.43,3.11-6.57,3.83a13.78,13.78,0,0,1-3.06.39A5.77,5.77,0,0,1,394,266.6a13,13,0,0,1-.27-2.14L392.94,253l5-1.14.8,10.74q0,.39.06.75a6.66,6.66,0,0,0,.12.67,3.68,3.68,0,0,0,1.21,2.15,2.3,2.3,0,0,0,1.47.45,5.27,5.27,0,0,0,1.12-.14,4,4,0,0,0,2.71-1.65,5.46,5.46,0,0,0,.64-3.18c-.15-2.14-.28-3.84-.37-5.1s-.18-2.24-.24-2.92-.1-1.13-.14-1.39a5.19,5.19,0,0,0-.11-.64,4.26,4.26,0,0,0-.64-1.55,6.82,6.82,0,0,0-1.15-1.24c-.76-.62-1.52-1.19-2.26-1.71s-1.49-1-2.26-1.55-1.55-1.06-2.35-1.66-1.66-1.27-2.56-2a5.38,5.38,0,0,1-1.31-1.5,6.33,6.33,0,0,1-.66-1.78c-.06-.25-.11-.54-.16-.86s-.12-.87-.2-1.65-.17-1.86-.27-3.24-.23-3.24-.38-5.6q-.67-8.9,8.07-10.9a14.43,14.43,0,0,1,3.17-.41m0-2.84h0a17,17,0,0,0-3.8.48c-7.18,1.64-10.82,6.57-10.27,13.88.15,2.34.28,4.22.38,5.6s.19,2.5.28,3.33.16,1.4.22,1.78a10.21,10.21,0,0,0,.2,1.07,9.54,9.54,0,0,0,.94,2.52,8.26,8.26,0,0,0,2,2.29c1,.81,1.86,1.54,2.71,2.16s1.66,1.19,2.45,1.73l1.31.88-1.33.31-5,1.14-2.38.54.18,2.43.82,11.42a15.18,15.18,0,0,0,.34,2.6,9,9,0,0,0,4.36,6.3,9.2,9.2,0,0,0,4.49,1.06,16.9,16.9,0,0,0,3.69-.46c3.86-.88,6.65-2.57,8.29-5a13.72,13.72,0,0,0,2-8.88c-.19-2.24-.34-4.09-.44-5.51s-.18-2.46-.24-3.25-.13-1.51-.21-2-.14-.8-.21-1.11a9.95,9.95,0,0,0-3.59-5.86,45.61,45.61,0,0,0-5-3.62c-.68-.43-1.37-.9-2.05-1.42l2.42-.55,4.85-1.11,2.38-.55-.18-2.43-.73-9.82a19.44,19.44,0,0,0-.43-2.93,8.66,8.66,0,0,0-4.22-6.09,9,9,0,0,0-4.23-1Zm-2.37,22.29s0-.06,0-.18a1.78,1.78,0,0,1,0-.2c0-.21-.06-.61-.11-1.21s-.13-1.59-.22-2.83l-.05-.73-.33-4.41c-.08-1.3.26-1.51,1.18-1.72l.24-.05s0,.09,0,.14.05.27.08.45,0,.36.05.54v.07l.66,9.16.18,2.44c-.41-.33-.82-.68-1.23-1a2.86,2.86,0,0,1-.42-.43Zm1.92,28.41a2.47,2.47,0,0,1-.11-.39c0-.12-.05-.25-.07-.38s0-.36-.05-.54v-.08l-.8-10.73-.11-1.41.93.73a5.07,5.07,0,0,1,.67.72,1.8,1.8,0,0,1,.19.54c0,.09,0,.23.06.4s.06.43.13,1.25.13,1.63.23,2.89.22,2.93.37,5a2.77,2.77,0,0,1-.23,1.54h0a2,2,0,0,1-.92.36l-.29.06Z"/></g></g></svg>