<svg xmlns="http://www.w3.org/2000/svg" viewBox="0 0 507.22 407.12"><defs><style>.cls-1,.cls-2{fill:#fff;}.cls-2,.cls-3{fill-rule:evenodd;}.cls-4{font-size:65.61px;font-family:SteelfishRg-Italic, Steelfish;font-style:italic;}.cls-5{letter-spacing:-0.02em;}.cls-6{letter-spacing:-0.01em;}.cls-7{letter-spacing:0em;}.cls-8{letter-spacing:-0.01em;}</style></defs><title>Asset 5</title><g id="Layer_2" data-name="Layer 2"><g id="Layer_1-2" data-name="Layer 1"><polygon class="cls-1" points="51.87 283.11 7.65 247.58 157.88 212.73 178.04 299.64 27.81 334.49 51.87 283.11"/><path d="M155.31,216.85l18.61,80.22-140,32.48L53.84,287l2.29-4.88-4.21-3.38L15.31,249.32l140-32.47m5.14-8.24L0,245.83,47.62,284.1,21.71,339.42l160.45-37.21-21.71-93.6Z"/><polygon class="cls-1" points="329.18 175.73 479.41 140.88 455.35 192.26 499.57 227.79 349.34 262.64 329.18 175.73"/><path d="M473.31,145.82l-19.93,42.54-2.29,4.88,4.21,3.38L491.91,226l-140,32.48L333.3,178.3l140-32.48m12.2-9.87L325.06,173.16l21.71,93.6,160.45-37.22L459.6,191.27,485.51,136Z"/><path class="cls-2" d="M253.47,398.54c-6.36,0-19.88-5-22.52-6l-4.51-1.68A149.89,149.89,0,0,1,211,384.4c-10.43-5.1-20.57-11.55-29.52-17.25L179.69,366c-32.94-20.94-61.14-56.85-77.37-98.52-2.95-7.58-4.87-15.53-6.72-23.22-.92-3.82-1.87-7.76-2.93-11.58l-.19-.71-.84-8.41c-3.26-12.47-2.94-28.2-2.63-43.41.09-4.38.17-8.51.17-12.53l.19-73.43,7.95-.57C141.65,90.49,162.47,52.58,167.8,41a35.58,35.58,0,0,0,3.35-9.59c.15-1.11.2-1.38.36-2.17.2-1,.68-3.42,2.3-13.47L175,8.59l158.46.18.66,7.85c1,11.78,3.51,18.07,6.43,25.35l.86,2.17c7.62,19.24,24.5,35.08,47.53,44.61,3.88,1.6,8.92,2.67,13.8,3.7l2.47.53a12.45,12.45,0,0,0,1.86.18,19.34,19.34,0,0,1,5.48.93l5.79,2V178c0,2.44,0,4.91,0,7.37.1,13.27.2,27-2.63,38.53a8.9,8.9,0,0,0-.17,2.2,25.58,25.58,0,0,1-.68,6c-.71,2.81-1.36,5.64-2,8.46a190.06,190.06,0,0,1-5.23,19.53c-16,46.26-44.82,83.67-83.34,108.2-10,6.38-21.36,13.61-33.88,18.63-1.61.65-3,1.27-4.44,1.88a116.44,116.44,0,0,1-11.72,4.49,191.3,191.3,0,0,1-18.52,5A11.75,11.75,0,0,1,253.47,398.54Z"/><path d="M182.28,17.17l143.27.17c1.2,14.27,4.48,21.42,7.87,30,9.25,23.36,29.08,39.8,52.22,49.38,5.34,2.21,11.89,3.42,17.74,4.68,2.53.55,4.46.19,6.36.84V178c0,15.31.73,31.33-2.34,43.85-.77,3.11-.08,5.17-.84,8.2-2.33,9.23-4,18.59-7,27.28-15.5,44.81-42.95,80.28-79.84,103.77-10,6.38-20.78,13.22-32.47,17.91-5.33,2.14-8.78,4-15.56,6.15a173.86,173.86,0,0,1-17.58,4.73,3.4,3.4,0,0,1-.61,0c-2.92,0-11.25-2.34-19.47-5.47-6.89-2.63-11.86-4.19-19.25-7.8-10.65-5.21-20.95-11.86-30.46-17.91-32.84-20.87-58.92-55.74-74-94.4-4.15-10.66-6.14-22.33-9.37-34L100.1,222c-4-14.7-2.34-36.21-2.34-54.4,0-21.87.11-43.57.17-65.44,38-2.7,64.69-29.46,77.66-57.58,2.49-5.4,2.52-5.5,4-11.62.39-3.12,0,.7,2.68-15.83M167.68,0l-1.91,14.68a97.69,97.69,0,0,1-2.68,12.93A54.82,54.82,0,0,1,160,37.44c-4.83,10.46-23.66,44.83-63.3,47.65l-15.9,1.13,0,15.94-.08,32.7L80.6,167.6c0,4-.08,8.06-.17,12.39-.31,15.55-.64,31.6,2.73,45.09l.29,2.85.42,4.18.14,1.46.4,1.42c1,3.68,1.91,7.38,2.85,11.3,1.92,8,3.9,16.2,7.06,24.32,17.13,44,45.81,80.43,80.77,102.65l1.78,1.13c9.14,5.82,19.49,12.41,30.35,17.71a156.7,156.7,0,0,0,16.26,6.77c1.4.52,2.86,1.06,4.41,1.65,5.21,2,18.13,6.6,25.58,6.6a20.88,20.88,0,0,0,3.93-.37,193.68,193.68,0,0,0,19.47-5.22,124.07,124.07,0,0,0,12.51-4.79c1.42-.61,2.76-1.19,4.24-1.79,13.25-5.32,25-12.78,35.29-19.36C369.08,350,399.1,311.07,415.74,263a193.12,193.12,0,0,0,5.49-20.41c.66-2.87,1.29-5.59,2-8.28a33,33,0,0,0,.93-8c0-.2,0-.41,0-.62,3-12.5,2.9-26.63,2.79-40.3,0-2.44,0-4.88,0-7.3V90s-31.56-7.83-34.7-9.13C377.44,74.71,358,62.84,349.37,41c-.3-.74-.59-1.48-.88-2.2-2.88-7.19-5-12.38-5.84-22.88L341.33.2l-15.76,0L253.71.1,182.3,0,167.68,0Z"/><path class="cls-3" d="M253.47,390c-2.95,0-11.14-2.3-19.47-5.47-1.56-.6-3-1.14-4.43-1.66l-.16-.06a142.66,142.66,0,0,1-14.66-6.08c-10-4.88-19.91-11.19-28.66-16.76l-1.8-1.15c-31.43-20-58.4-54.39-74-94.4-2.74-7-4.58-14.69-6.37-22.1-.94-3.92-1.91-7.92-3-11.87l-.84-8.34-.16-.65c-3-11.33-2.65-26.45-2.35-41.08.09-4.5.17-8.63.17-12.7l.17-65.44c49-3.49,71.83-44.95,77.66-57.58a43.61,43.61,0,0,0,3.9-11.14l.11-.47.06-.47c.1-.78.14-1,.25-1.52.23-1.18.73-3.69,2.37-13.85l143.27.17c1.1,13.07,4,20.23,7,27.82l.87,2.16c8.47,21.39,27,38.93,52.21,49.36,4.61,1.91,10.05,3,15.3,4.16l2.46.53,6.34,1.49V178c0,2.47,0,4.95,0,7.44.1,12.74.2,25.91-2.38,36.41A17.42,17.42,0,0,0,407,226a16.85,16.85,0,0,1-.42,4.07c-.71,2.83-1.37,5.67-2,8.49a183.52,183.52,0,0,1-5,18.79c-15.36,44.41-43,80.3-79.84,103.77C310,367.3,299,374.3,287.22,379c-1.67.68-3.16,1.32-4.63,2a103.83,103.83,0,0,1-10.93,4.2,180,180,0,0,1-17.58,4.73A3.4,3.4,0,0,1,253.47,390Z"/><path class="cls-1" d="M189.56,25.76,318,25.91c1.54,9.7,4.13,16.15,6.64,22.42l.85,2.13c9.35,23.59,29.56,42.82,56.92,54.14,5.34,2.21,11.44,3.5,16.78,4.63l2,.43V178c0,2.49,0,5,0,7.51.09,12.21.19,24.83-2.13,34.3a25,25,0,0,0-.67,6,9.13,9.13,0,0,1-.16,2.1c-.74,2.94-1.41,5.85-2.06,8.66l0,.14a176.88,176.88,0,0,1-4.73,17.77c-14.72,42.56-41.12,76.91-76.34,99.34-9.39,6-20,12.75-31.06,17.18-1.81.73-3.35,1.4-4.89,2.06A95.25,95.25,0,0,1,269.05,377c-2.23.71-9.74,3.05-15.86,4.33-2.53-.33-9.07-2.18-16.13-4.87l-4.51-1.68-.18-.07A132.64,132.64,0,0,1,218.52,369c-9.55-4.67-19.26-10.84-27.85-16.3l-1.78-1.14c-29.92-19-55.65-51.92-70.59-90.27-2.52-6.49-4.3-13.87-6-21.06-.9-3.71-1.82-7.54-2.87-11.38l-.69-7-.14-1.33-.33-1.29c-2.66-10.18-2.36-24.7-2.08-38.75v-.12c.09-4.42.18-8.6.18-12.71l.14-57.81c48.24-7.42,70.89-48.64,76.9-61.65a51.63,51.63,0,0,0,4.44-12.71l.23-.92.12-1a8.79,8.79,0,0,1,.15-1l0-.1c.16-.86.46-2.37,1.21-6.82M175,8.59l-1.17,7.21c-1.62,10.05-2.1,12.45-2.3,13.47-.16.79-.21,1.06-.36,2.17A35.58,35.58,0,0,1,167.8,41c-5.33,11.55-26.15,49.46-70.48,52.61l-7.95.57-.19,73.43c0,4-.08,8.15-.17,12.53-.31,15.21-.63,30.94,2.62,43.41l.85,8.41.19.71c1.06,3.82,2,7.76,2.93,11.58,1.85,7.69,3.77,15.64,6.72,23.22,16.23,41.67,44.43,77.58,77.37,98.52l1.78,1.13c8.95,5.7,19.09,12.15,29.52,17.25a149.89,149.89,0,0,0,15.45,6.42L231,392.5c2.64,1,16.16,6,22.52,6a11.75,11.75,0,0,0,2.27-.21,191.3,191.3,0,0,0,18.52-5A116.44,116.44,0,0,0,286,388.87c1.4-.61,2.83-1.23,4.44-1.88,12.52-5,23.87-12.25,33.88-18.63,38.52-24.53,67.34-61.94,83.34-108.2a190.06,190.06,0,0,0,5.23-19.53c.65-2.82,1.3-5.65,2-8.46a25.58,25.58,0,0,0,.68-6,8.9,8.9,0,0,1,.17-2.2c2.83-11.55,2.73-25.26,2.63-38.53,0-2.46,0-4.93,0-7.37V96.08s-12.62-3-13.13-3.1l-2.47-.53c-4.88-1-9.92-2.1-13.8-3.7-23-9.53-39.91-25.37-47.53-44.61L340.53,42c-2.92-7.28-5.44-13.57-6.43-25.35l-.66-7.85L175,8.59Z"/><path class="cls-1" d="M162.3,169.26c-.5-.52-12.43-12.79-25.25-10.22-7.37,1.45-13.09,7.33-17,17.4-12.58,32.34,3.92,81.62,12,90,6.6,6.85,20.75,12.43,31.3,9.84.42-.11.82-.22,1.22-.35,5.91-1.85,10-6.15,11.84-12.45l.51-1.73-8.73-2.54L167.7,261c-1,3.61-3.13,5.68-6.5,6.52-7.54,1.85-18.59-3.18-22.59-7.32-7.22-7.49-20.75-53-10.09-80.42,2.73-7,6.22-11,10.32-11.77,6.51-1.32,14.41,5,16.89,7.6l1.25,1.32,6.56-6.33Z"/><path class="cls-1" d="M312.05,121.89c.12-.72,2.91-17.6,14.9-22.8,6.88-3,14.93-1.46,23.9,4.57,28.79,19.37,43.37,69.26,41.51,80.78-1.52,9.39-9.95,22.06-20.09,25.95-.41.15-.8.29-1.2.41-5.9,1.85-11.72.66-16.83-3.47l-1.4-1.12,5.71-7.08,1.4,1.13c2.93,2.36,5.82,2.88,9.06,1.64,7.25-2.78,13.45-13.22,14.37-18.91,1.65-10.27-13.21-55.36-37.61-71.78-6.24-4.2-11.36-5.45-15.2-3.79-6.1,2.64-8.95,12.38-9.53,15.89l-.27,1.8-9-1.45Z"/><path class="cls-1" d="M244.73,278.32a4.58,4.58,0,0,1-3.93,1.82l-54.93,1.37a4.55,4.55,0,0,1-4-1.67c-5.49-8-15.34-26.72-19.58-61.52-2.49-20.44.31-57.12,1.17-67.21l47.26-1.18c.55,9,7.75,19.19,12.65,26.09,1.56,2.18,2.88,4,3.55,5.2,2.28,4.11,2.34,9.4,2.43,14.2a46.49,46.49,0,0,0,.41,7.21,13.88,13.88,0,0,0,5.39,8.44c6.32,4.91,13.87.85,14.86-2,1.27,2.08,1.51,2.42,2.74,4.21q3.93,5.7,7.72,10.59C257.23,254.16,249.24,271,244.73,278.32Z"/><path class="cls-1" d="M357.34,209.48l.09,0a111.25,111.25,0,0,1,.76,14.35,5.56,5.56,0,0,1-2.41,4.11l-48,27c-1.65.91-3.05,1.22-4.24.59-6.9-3.68-25.17-15.43-45.94-45.63-2-2.84-4-6.15-6-9.75l-.57-1c-10-17.72-20.16-41.5-23.34-49.1l1.69.43a34.67,34.67,0,0,1,4.86,1.46c4.47,1.88,10.2,3.8,16.22,1.91a16.25,16.25,0,0,0,2.68-1.48c7.55-4.19,8.78-12,10.2-17.67a49.33,49.33,0,0,0,1.15-5.27v0L308.59,105c5.85,8.26,26.78,37.08,35,56C353,182.65,356.36,198.26,357.34,209.48Z"/><path d="M173.36,194.42a2.62,2.62,0,0,1-2.69,2.8,2.75,2.75,0,0,1-2.8-2.69,88.93,88.93,0,0,1,1.37-17.86,2.76,2.76,0,0,1,2.52-2.24,3.14,3.14,0,0,1,.68,0,2.75,2.75,0,0,1,2.2,3.21A83.66,83.66,0,0,0,173.36,194.42Z"/><path d="M192.34,269.94a2.65,2.65,0,0,1-3.7-.87c-.65-1.19-15.73-29.15-19.76-60.92-.19-1.51.94-1.93,2.45-2l.17,0c1.44-.09,2.66,0,2.84,1.42,3.9,30.74,19,58.29,19.12,58.58A2.88,2.88,0,0,1,192.34,269.94Z"/><path d="M305.6,124.65a2.77,2.77,0,0,0-.34,3.88c.27.32,27.89,33.55,36.72,77.19a2.75,2.75,0,0,0,3.24,2.15l.28-.07a2.75,2.75,0,0,0,1.87-3.17c-9.11-45-36.73-78.24-37.9-79.64A2.77,2.77,0,0,0,305.6,124.65Z"/><path d="M238.87,129.44a2.87,2.87,0,0,0,.71-.13,3,3,0,0,0,2.08-3c0-.72-.9-17.3,14.52-22.13l.48-.15A3,3,0,1,0,255,98.3l-.59.18c-15.85,5-19.17,20.54-18.7,28.18A3,3,0,0,0,238.87,129.44Z"/><path d="M359.66,187.1l-.59-1.63c-.44-1.52-.87-3-1.37-4.62l-1-1.93c-3.92-10.42-10.9-28.12-16.16-36.74-4.91-8-15.18-23.47-22-33.68l-2.34-4.32c-1.58-2.25-2.7-3.83-3.23-4.56C308.55,82.72,296.85,81,292,81a25.3,25.3,0,0,0-17.27,7.53,35.81,35.81,0,0,0-31.19,2.21c-7.81,4.33-12.55,11.38-15.65,18.15a33.86,33.86,0,0,0-14.75-3.19,35.81,35.81,0,0,0-27.89,13.73,25.13,25.13,0,0,0-18.93,2.06c-4.33,2.47-13.94,9.74-8.58,27.14,0,0,0,0,0,0-.08,1-.25,2.93-.46,5.53l-1.56,26.17c-.51,13.25-.59,27.93.71,38.66a194.44,194.44,0,0,0,8.35,38.41l6.77,16.34a81.74,81.74,0,0,0,5.47,9.4,10.32,10.32,0,0,0,9.06,4.26L241,286.08a12.43,12.43,0,0,0,3.48-.55,9.52,9.52,0,0,0,5.36-4.09c4.47-7.29,12.16-23.3,15.89-51.12,15.22,18.13,28,26.76,35.15,30.56a9.66,9.66,0,0,0,7.53.57,13.12,13.12,0,0,0,2.43-1.05l48.06-26.64a10.34,10.34,0,0,0,5.66-8.27,81.15,81.15,0,0,0,0-9.6l-3.44-22.76c-.49-2.07-1.06-4.22-1.69-6.45ZM246.36,96a30,30,0,0,1,24.94-2.34,11.47,11.47,0,0,0-.66,1.92,3.16,3.16,0,0,0,2.16,3.78c1.61.33,3.17-1,3.67-2.57a12.61,12.61,0,0,1,1.65-3.2A19.12,19.12,0,0,1,292,87c6.95-.1,12.07,4.33,14.66,12.44l-44.12,24.46a3,3,0,0,0-1,1c-1.76,1.84-2.55,4.72-3.37,8-1.29,5.18-2.74,11-8,14-4.4,2.46-9.49.31-14-1.58-3.71-1.56-6.91-2.93-9.68-1.38-.07,0-.11.1-.17.14a1.59,1.59,0,0,0-.2.07l-3.65,2a3,3,0,0,0-1.31,3.72c.6,1.49,12.76,31.19,24.9,52.61-.12,1.27-.65,4-3,4.59a5.47,5.47,0,0,1-4.5-.58,6.27,6.27,0,0,1-2.74-4.26,45.1,45.1,0,0,1-.4-6.57c-.11-5.49-.22-11.71-3.22-17.11-.83-1.5-2.19-3.42-3.92-5.85-4.71-6.61-11.81-16.59-11.68-23.93.17-8.84,4.12-12.63,7.29-15.68a14.7,14.7,0,0,0,3.67-4.54,32.75,32.75,0,0,0,1.26-4.11C230.7,117.27,234.66,102.46,246.36,96Zm-77.05,31a19.17,19.17,0,0,1,15.25-1.4,6.12,6.12,0,0,0,.62.3,7.51,7.51,0,0,1,2.48,1.65,3,3,0,0,0,4.19.17,3.07,3.07,0,0,0,.18-4.29,12,12,0,0,0-1.42-1.22,30,30,0,0,1,22.62-10.55,28.25,28.25,0,0,1,12.36,2.75c-.63,1.79-1.19,3.51-1.63,5.06a25,25,0,0,0-17-1.43,3,3,0,0,0,1.46,5.77,19.27,19.27,0,0,1,13.9,1.49c-.09.3-.2.65-.27.82a12.44,12.44,0,0,1-2.33,2.59c-3,2.91-7.34,7.1-8.68,15.27l-48.11,1.19C160.8,136.62,163.1,130.54,169.31,127Zm75.42,151.31a4.58,4.58,0,0,1-3.93,1.82l-54.93,1.37a4.55,4.55,0,0,1-4-1.67c-5.49-8-15.34-26.72-19.58-61.52-2.49-20.44.31-57.12,1.17-67.21l47.26-1.18c.55,9,7.75,19.19,12.65,26.09,1.56,2.18,2.88,4,3.55,5.2,2.28,4.11,2.34,9.4,2.43,14.2a46.49,46.49,0,0,0,.41,7.21,13.88,13.88,0,0,0,5.39,8.44c6.32,4.91,13.87.85,14.86-2,1.27,2.08,1.51,2.42,2.74,4.21q3.93,5.7,7.72,10.59C257.23,254.16,249.24,271,244.73,278.32Zm112.61-68.84.09,0a111.25,111.25,0,0,1,.76,14.35,5.56,5.56,0,0,1-2.41,4.11l-48,27c-1.65.91-3.05,1.22-4.24.59-6.9-3.68-25.17-15.43-45.94-45.63-2-2.84-4-6.15-6-9.75l-.57-1c-10-17.72-20.16-41.5-23.34-49.1l1.69.43a34.67,34.67,0,0,1,4.86,1.46c4.47,1.88,10.2,3.8,16.22,1.91a16.25,16.25,0,0,0,2.68-1.48c7.55-4.19,8.78-12,10.2-17.67a49.33,49.33,0,0,0,1.15-5.27v0L308.59,105c5.85,8.26,26.78,37.08,35,56C353,182.65,356.36,198.26,357.34,209.48Z"/><path class="cls-1" d="M246.36,96a30,30,0,0,1,24.94-2.34,11.47,11.47,0,0,0-.66,1.92,3.16,3.16,0,0,0,2.16,3.78c1.61.33,3.17-1,3.67-2.57a12.61,12.61,0,0,1,1.65-3.2A19.12,19.12,0,0,1,292,87c6.95-.1,12.07,4.33,14.66,12.44l-44.12,24.46a3,3,0,0,0-1,1c-1.76,1.84-2.55,4.72-3.37,8-1.29,5.18-2.74,11-8,14-4.4,2.46-9.49.31-14-1.58-3.71-1.56-6.91-2.93-9.68-1.38-.07,0-.11.1-.17.14a1.59,1.59,0,0,0-.2.07l-3.65,2a3,3,0,0,0-1.31,3.72c.6,1.49,12.76,31.19,24.9,52.61-.12,1.27-.65,4-3,4.59a5.47,5.47,0,0,1-4.5-.58,6.27,6.27,0,0,1-2.74-4.26,45.1,45.1,0,0,1-.4-6.57c-.11-5.49-.22-11.71-3.22-17.11-.83-1.5-2.19-3.42-3.92-5.85-4.71-6.61-11.81-16.59-11.68-23.93.17-8.84,4.12-12.63,7.29-15.68a14.7,14.7,0,0,0,3.67-4.54,32.75,32.75,0,0,0,1.26-4.11C230.7,117.27,234.66,102.46,246.36,96Z"/><path class="cls-1" d="M169.31,127a19.17,19.17,0,0,1,15.25-1.4,6.12,6.12,0,0,0,.62.3,7.51,7.51,0,0,1,2.48,1.65,3,3,0,0,0,4.19.17,3.07,3.07,0,0,0,.18-4.29,12,12,0,0,0-1.42-1.22,30,30,0,0,1,22.62-10.55,28.25,28.25,0,0,1,12.36,2.75c-.63,1.79-1.19,3.51-1.63,5.06a25,25,0,0,0-17-1.43,3,3,0,0,0,1.46,5.77,19.27,19.27,0,0,1,13.9,1.49c-.09.3-.2.65-.27.82a12.44,12.44,0,0,1-2.33,2.59c-3,2.91-7.34,7.1-8.68,15.27l-48.11,1.19C160.8,136.62,163.1,130.54,169.31,127Z"/><path class="cls-1" d="M91,213.14a11.53,11.53,0,1,0-14,8.3A11.55,11.55,0,0,0,91,213.14Z"/><path d="M79.88,224.38a14.18,14.18,0,0,1-3.53-.45,14.1,14.1,0,1,1,17.17-10.15h0a14.12,14.12,0,0,1-13.64,10.6Zm0-23.07a9,9,0,1,0,7.71,4.41,8.87,8.87,0,0,0-5.48-4.12A9,9,0,0,0,79.86,201.31Z"/><path class="cls-1" d="M64.69,230.2a16.31,16.31,0,1,0-19.86,11.74A16.33,16.33,0,0,0,64.69,230.2Z"/><path d="M48.91,245a19.09,19.09,0,0,1-4.72-.6,18.78,18.78,0,1,1,4.72.6Zm0-32.63a13.73,13.73,0,1,0,3.41.43A13.77,13.77,0,0,0,48.9,212.4Z"/><path class="cls-1" d="M112.13,214.28c-8.1-.05-11.93,3.64-12.75,6.83a4.76,4.76,0,0,0,1.74,5.23c.46.32,1,.63,1.45.94,1.09.69,2.74,1.73,2.59,2.3-.06.23-.37.9-2,2-4.18,3-8.48,2.93-17.92,2.74-2.07,0-4.37-.08-7-.1-11.32-.07-21.56,6.5-23.81,15.28a16.71,16.71,0,0,0,2.2,12.81,15.41,15.41,0,0,0,14.15,7.89c9-.23,19.11-7,23.9-16.18,6.12-11.7,11.17-13,19.53-15.19.93-.25,1.91-.5,2.92-.78,5.91-1.62,11.48-.58,13.45,1.35a1.9,1.9,0,0,1,.62,2,6.05,6.05,0,0,1-1.8,2.6c-3.29,3.1-6.13,3-9.72,2.84s-7.51-.31-12.39,2.58c-5.06,3-8.3,6.75-9.36,10.87a12.22,12.22,0,0,0,1.42,9.38c2.82,4.77,9.63,11.79,23.57,5.25,4.6-2.16,6.77-6.19,8.88-10.07,3.7-6.83,7.19-13.28,24.38-9.7,26.52,5.52,27.71,30,27.75,31a1.55,1.55,0,0,0,3,.59,4.65,4.65,0,0,0,.28-.8c1.75-6.82-5-31.91-18.81-48.33C153.75,220.17,124.16,214.35,112.13,214.28Z"/><path d="M185.57,290.26a4.45,4.45,0,0,1-.81-.08,4.13,4.13,0,0,1-3.32-3.89c0-1-1.1-23.48-25.7-28.6-15.32-3.19-18.09,1.92-21.59,8.4-2.21,4.07-4.7,8.66-10.06,11.18C107.73,285,99.85,275.45,97.22,271a14.69,14.69,0,0,1-1.7-11.33c1.23-4.8,4.88-9.1,10.54-12.45s10.12-3.09,13.8-2.93c3.45.13,5.35.21,7.85-2.15a5.72,5.72,0,0,0,.91-1c-1.4-1-5.54-2-10.73-.53l-3,.79c-8.19,2.13-12.3,3.2-17.9,13.89-5.2,9.92-16.18,17.31-26.12,17.57a18,18,0,0,1-16.43-9.16A19.26,19.26,0,0,1,52,248.91c2.53-9.84,13.74-17.21,26.13-17.21h.2c2.59,0,4.9.06,7,.1,9,.18,12.76.25,16.2-2.14l-.32-.2-.22-.14c-.46-.29-.91-.58-1.34-.88a7.35,7.35,0,0,1-2.75-8c1-4.06,5.62-8.77,15.08-8.77h.18c12.41.08,43,6.12,58.27,24.29,13.66,16.26,21.47,42.26,19.32,50.63a6.94,6.94,0,0,1-.44,1.24A4.11,4.11,0,0,1,185.57,290.26Zm-68.21-40.89a15.92,15.92,0,0,0-8.68,2.28c-4.46,2.64-7.29,5.85-8.17,9.3a9.61,9.61,0,0,0,1.14,7.43c2.9,4.91,8.77,9.62,20.25,4.23,3.83-1.8,5.71-5.28,7.71-8.95,3.81-7,8.12-15,27.18-11,15.6,3.25,23,12.62,26.58,20.62-2.52-9.89-8.08-23.48-16.89-34-14.12-16.79-42.72-22.38-54.36-22.45H112c-7,0-9.63,3.07-10.1,4.9a2.22,2.22,0,0,0,.73,2.48c.37.26.76.5,1.14.75l.21.13c2,1.28,4.32,2.73,3.7,5.11-.29,1.15-1.23,2.26-3,3.5-4.87,3.52-9.75,3.42-19.47,3.23-2.06,0-4.35-.09-6.91-.1h-.18C68,236.84,59,242.56,57,250.19a14.17,14.17,0,0,0,1.93,10.86,12.76,12.76,0,0,0,11.86,6.63c8.18-.21,17.31-6.44,21.69-14.81,6.65-12.7,12.74-14.29,21.16-16.49.92-.24,1.89-.49,2.89-.77,6.3-1.72,13-.88,15.93,2a4.46,4.46,0,0,1,1.31,4.44,8.29,8.29,0,0,1-2.53,3.83c-4.08,3.84-7.9,3.69-11.59,3.54C118.9,249.4,118.13,249.37,117.36,249.37Z"/><path class="cls-1" d="M157.69,273a2.5,2.5,0,0,0,2-1.84,2.57,2.57,0,0,0,.08-.62,2.49,2.49,0,0,0-2.06-2.45c-1-.17-23.22-3.91-27.81,11.93l-.16.56c-1.12,4.39-.23,8.24,2.38,10.3a5.57,5.57,0,0,0,6,.72c2.57-1.35,4.39-4.47,6-7.64l.18-.35c.07-.13.15-.31.25-.52C145.47,281,148.39,274.7,157.69,273Z"/><path d="M135.74,294.76a8.46,8.46,0,0,1-5.24-1.86c-3.44-2.71-4.67-7.56-3.28-13l.16-.59c4.19-14.42,21.3-15.45,30.74-13.8a5.07,5.07,0,0,1,0,10h0c-8,1.47-10.41,6.68-11.31,8.64-.16.32-.23.49-.3.62l-.17.33c-1.77,3.55-3.86,7.06-7.06,8.76A7.61,7.61,0,0,1,135.74,294.76Zm15.51-24.64c-6.48,0-16.28,1.54-18.91,10.62l-.14.52c-.86,3.33-.31,6.19,1.49,7.6a3,3,0,0,0,3.22.47c1.93-1,3.54-3.87,4.87-6.52l.35-.7A19.63,19.63,0,0,1,157,270.51,43.65,43.65,0,0,0,151.25,270.12Z"/><polygon class="cls-1" points="88.82 275.28 432.12 195.94 432.12 283.31 88.82 362.65 88.82 275.28"/><path d="M85.55,272l-.66.15V367.6l350.51-81,.66-.15V191Zm7.21,85.7V278.41l335.43-77.52v79.29Z"/><text class="cls-4" transform="matrix(1.05, -0.24, 0.22, 0.97, 96.08, 344.21)"> <tspan class="cls-5" x="8.92" y="0">B</tspan><tspan x="29.26" y="0">AR </tspan><tspan class="cls-6" x="81.94" y="0">R</tspan><tspan class="cls-7" x="103.06" y="0">OOM HE</tspan><tspan class="cls-8" x="223.9" y="0">R</tspan><tspan x="245.03" y="0">OES</tspan></text><path class="cls-1" d="M421.91,190.84c-2.62-5.48-10.51-8.61-18.35-7.27-1.78.3-3.37.59-4.8.85-6.52,1.2-9.49,1.74-12.75.24-1.25-.56-1.55-1-1.61-1.11-.17-.35.84-1.22,1.52-1.79l.89-.78a3,3,0,0,0,.57-3.61c-.95-2-4.05-4-9.66-3-8.32,1.42-28.13,8.58-36.2,21.66a58.07,58.07,0,0,0-7.34,20.66l5.64-1.22c2.27-3.58,6-7.07,12.25-9.39,11.48-4.29,16.81-3.65,19.72-.18,1.66,2,3.38,4,6.34,4.79,9,2.31,12.32-2.3,13.5-5.25a6.54,6.54,0,0,0-.13-5.41c-1.05-2.21-3.37-4-6.7-5.18a12.78,12.78,0,0,0-7.65-.24c-2.13.43-3.49,1.77-7.86,1.15a4.21,4.21,0,0,1-1.57-1.5,1.21,1.21,0,0,1,.2-1.35c1.13-1.49,4.86-2.8,9.15-2.41l2.12.18c6.06.47,9.71.76,15.37,7.69,4.42,5.43,12.21,8.73,18.52,7.85a10.71,10.71,0,0,0,8.85-6.76A10.5,10.5,0,0,0,421.91,190.84Z"/><path d="M331,220l.6-3.72a61,61,0,0,1,7.69-21.62c8.53-13.83,29.26-21.36,38-22.83,7-1.19,11.07,1.64,12.41,4.43a5.58,5.58,0,0,1-1.11,6.58c2,.43,4.47,0,9.71-.94,1.44-.26,3-.56,4.83-.86,9.07-1.55,17.95,2.11,21.1,8.69h0a13,13,0,0,1,.08,10.68,13.34,13.34,0,0,1-10.88,8.35c-6.31.88-13.62-1.74-18.73-6.49a9.42,9.42,0,0,1-.68,4.12c-1.21,3-5.24,9.68-16.53,6.78-3.76-1-5.92-3.55-7.66-5.61s-5-3.53-16.86.92c-4.93,1.84-8.63,4.65-11,8.36l-.58.9Zm49.47-43.31a14,14,0,0,0-2.36.21c-7.63,1.3-26.9,8.25-34.44,20.47a53,53,0,0,0-6.26,16l.81-.18a26.7,26.7,0,0,1,12.91-9.5c11.8-4.41,18.56-4.24,22.6.58,1.53,1.82,2.84,3.39,5,3.94,5.39,1.39,8.91.14,10.46-3.71a4,4,0,0,0-.06-3.33c-.74-1.57-2.61-2.94-5.24-3.88a10.46,10.46,0,0,0-6.27-.14,10,10,0,0,0-1.34.41,13.68,13.68,0,0,1-7.4.76l-.54-.07-.46-.29a6.42,6.42,0,0,1-2.53-2.56,3.79,3.79,0,0,1,.47-4c1.86-2.45,6.56-3.86,11.43-3.42l2,.16c6.37.5,10.9.86,17.25,8.65,3.83,4.69,10.78,7.67,16.17,6.92a8.12,8.12,0,0,0,6.82-5.17,8,8,0,0,0,0-6.53c-2.11-4.41-9-7-15.6-5.85-1.77.3-3.34.59-4.76.85-6.86,1.26-10.29,1.89-14.29.05a5.38,5.38,0,0,1-2.86-2.33c-1-2.15.89-3.78,2.16-4.87.36-.3.59-.5.8-.7.06-.06.22-.2,0-.62C384.72,177.77,383.37,176.68,380.51,176.68Z"/><path class="cls-1" d="M439.77,220.41a9,9,0,1,0-11.94-4.51A9,9,0,0,0,439.77,220.41Z"/><path d="M436.07,223.79a11.61,11.61,0,1,1,4.76-1h0A11.46,11.46,0,0,1,436.07,223.79Zm0-18.06a6.45,6.45,0,1,0,2.67,12.34h0a6.46,6.46,0,0,0-2.67-12.34Z"/><path class="cls-1" d="M278.28,83.23,299.35,67a8.24,8.24,0,0,0,.72-.83,7.69,7.69,0,1,0-12.94-8.22"/><path class="cls-1" d="M256.53,80.65,267.75,56.5a9.28,9.28,0,0,0,.26-1.07A7.69,7.69,0,1,0,252.83,53a6.89,6.89,0,0,0-.09,1.1"/><path class="cls-1" d="M228.94,79l.3-26.62a7,7,0,0,0-.2-1.09,7.69,7.69,0,0,0-14.85,4,9.16,9.16,0,0,0,.37,1"/><path class="cls-1" d="M205.29,97.68l-11.1-24.21a6.9,6.9,0,0,0-.64-.89,7.69,7.69,0,1,0-11.71,10,7.1,7.1,0,0,0,.77.78"/><path class="cls-1" d="M183.83,111.66l-20-17.57a9.88,9.88,0,0,0-1-.56,7.69,7.69,0,1,0-6.63,13.88,7.52,7.52,0,0,0,1,.39"/><path d="M238.87,129.44a2.87,2.87,0,0,0,.71-.13,3,3,0,0,0,2.08-3c0-.72-.9-17.3,14.52-22.13l.48-.15A3,3,0,1,0,255,98.3l-.59.18c-15.85,5-19.17,20.54-18.7,28.18A3,3,0,0,0,238.87,129.44Z"/></g></g></svg>